<?xml version="1.0" encoding="UTF-8" standalone="no"?>
<!-- Generator: Adobe Illustrator 15.1.0, SVG Export Plug-In . SVG Version: 6.00 Build 0)  -->

<svg
   xmlns:dc="http://purl.org/dc/elements/1.1/"
   xmlns:cc="http://creativecommons.org/ns#"
   xmlns:rdf="http://www.w3.org/1999/02/22-rdf-syntax-ns#"
   xmlns:svg="http://www.w3.org/2000/svg"
   xmlns="http://www.w3.org/2000/svg"
   xmlns:sodipodi="http://sodipodi.sourceforge.net/DTD/sodipodi-0.dtd"
   xmlns:inkscape="http://www.inkscape.org/namespaces/inkscape"
   version="1.1"
   id="Layer_1"
   x="0px"
   y="0px"
   width="48"
   height="48"
   viewBox="0 0 48 48"
   enable-background="new 0 0 75 75"
   xml:space="preserve"
   inkscape:version="0.48.3.1 r9886"
   sodipodi:docname="bookreader-activ.svg"><metadata
   id="metadata37"><rdf:RDF><cc:Work
       rdf:about=""><dc:format>image/svg+xml</dc:format><dc:type
         rdf:resource="http://purl.org/dc/dcmitype/StillImage" /></cc:Work></rdf:RDF></metadata><defs
   id="defs35" /><sodipodi:namedview
   pagecolor="#ffffff"
   bordercolor="#666666"
   borderopacity="1"
   objecttolerance="10"
   gridtolerance="10"
   guidetolerance="10"
   inkscape:pageopacity="0"
   inkscape:pageshadow="2"
   inkscape:window-width="1364"
   inkscape:window-height="698"
   id="namedview33"
   showgrid="false"
   inkscape:zoom="6.2581524"
   inkscape:cx="11.646993"
   inkscape:cy="42.344581"
   inkscape:window-x="0"
   inkscape:window-y="0"
   inkscape:window-maximized="1"
   inkscape:current-layer="Layer_1"
   inkscape:showpageshadow="false"
   showborder="true"
   borderlayer="true" />


<g
   id="g2994"
   transform="matrix(0.63160985,0,0,0.63160985,0.31462984,-0.2381272)"><g
     transform="matrix(1.3951751,0,0,1.3951751,-14.819065,-15.164904)"
     id="g7">
	<g
   id="g9">
		<path
   style="fill:#c2c079;stroke:#1c4a61;stroke-width:3.5;stroke-linecap:round;stroke-linejoin:round"
   inkscape:connector-curvature="0"
   id="path11"
   d="m 41.66,49.412 c -2.297,0 -4.16,1.863 -4.16,4.16 0,-2.297 -1.863,-4.16 -4.16,-4.16 H 19.161 15 v 6.428 h 4.161 14.179 c 0,2.297 1.862,4.158 4.16,4.16 h 10e-4 c 2.297,0 4.161,-1.863 4.161,-4.16 H 55.84 60 V 49.412 H 55.84 41.66 z" />
		<path
   style="fill:#c2c079;stroke:#1c4a61;stroke-width:3.5;stroke-linecap:round;stroke-linejoin:round"
   inkscape:connector-curvature="0"
   id="path13"
   d="m 37.5,25.292 v 28.28 c 0,-2.297 1.863,-4.16 4.16,-4.16 H 55.84 60 V 21.131 H 41.66 c -2.297,0 -4.16,1.864 -4.16,4.161 z" />
		<path
   style="fill:#c2c079;stroke:#1c4a61;stroke-width:3.5;stroke-linecap:round;stroke-linejoin:round"
   inkscape:connector-curvature="0"
   id="path15"
   d="m 33.34,49.412 c 2.297,0 4.16,1.863 4.16,4.16 v -28.28 c 0,-2.298 -1.863,-4.161 -4.16,-4.161 H 15 v 28.281 h 4.161 14.179 z" />
	</g>
	<g
   id="g17">
		<path
   style="fill:#943a42"
   inkscape:connector-curvature="0"
   id="path19"
   d="m 49.594,18.587 c -0.904,-1.062 -2.313,-1.725 -3.613,-2.111 -3.944,-1.174 -8.308,-1.615 -12.419,-1.438 -1.431,0.063 -2.114,0.312 -2.674,0.685 -2.17,1.446 -3.207,4.482 -4.032,6.813 -0.803,2.265 -1.533,4.563 -2.049,6.913 -0.414,1.878 -0.986,4.362 -0.512,6.267 0.604,2.414 5.505,3.125 7.961,3.42 2.558,0.308 5.234,0.429 7.812,0.423 1.572,-0.004 4.254,-0.08 5.248,-0.703 1.066,-0.666 1.455,-2.354 1.988,-3.792 0.406,-1.089 0.914,-2.836 1.09,-3.575 0.539,-2.281 0.814,-3.413 1.213,-5.721 0.372,-2.163 1.336,-5.599 -0.013,-7.181 z" />
		<path
   style="fill:#ffffff"
   inkscape:connector-curvature="0"
   id="path21"
   d="m 43.51,27.601 c -0.092,0.777 -0.777,2.084 -0.777,2.084 0,0 -1.264,-1.149 -1.305,-1.96 -0.043,-0.829 0.049,-1.413 0.109,-1.688 0.131,-0.095 0.279,-0.175 0.449,-0.231 0.381,-0.127 0.666,-0.141 1.068,-0.074 0.075,0.178 0.524,1.298 0.456,1.869 z" />
		<path
   style="fill:#ffffff"
   inkscape:connector-curvature="0"
   id="path23"
   d="m 43.018,24.99 c -0.422,-0.071 -0.711,-0.063 -1.102,0.068 -0.223,0.074 -0.41,0.189 -0.566,0.329 -0.029,-0.072 -0.057,-0.154 -0.088,-0.242 0.16,-0.146 0.354,-0.266 0.586,-0.344 0.408,-0.137 0.705,-0.141 1.158,-0.058 0.004,0.09 0.008,0.174 0.012,0.247 z" />
		<path
   style="fill:#ffffff"
   inkscape:connector-curvature="0"
   id="path25"
   d="M 42.98,24.087 C 42.918,22.47 41.334,17.558 41.334,17.558 l -0.279,-0.063 c 0,0 -0.117,5.243 -0.031,6.405 0.023,0.327 0.072,0.614 0.131,0.862 0.16,-0.153 0.361,-0.277 0.601,-0.357 0.433,-0.145 0.738,-0.143 1.238,-0.043 -0.006,-0.086 -0.008,-0.177 -0.014,-0.275 z m -0.876,-0.311 c 0,0 -0.117,-0.744 -0.233,-1.354 -0.115,-0.605 -0.187,-0.815 -0.257,-1.259 -0.069,-0.442 -0.116,-1.026 -0.116,-1.026 0.188,0.443 0.979,2.565 1.004,3.592 -0.189,0 -0.398,0.047 -0.398,0.047 z" />
		<path
   style="fill:#ffffff"
   inkscape:connector-curvature="0"
   id="path27"
   d="m 37.917,23.781 c -0.323,-0.45 -0.958,-0.925 -1.905,-1.425 -1.181,-0.623 -2.203,-0.916 -3.066,-0.879 -0.864,0.037 -1.445,0.338 -1.743,0.902 -0.139,0.262 -0.174,0.535 -0.106,0.818 0.066,0.284 0.256,0.508 0.566,0.672 0.24,0.127 0.496,0.164 0.768,0.113 0.271,-0.051 0.483,-0.222 0.636,-0.512 0.108,-0.205 0.154,-0.408 0.139,-0.611 -0.015,-0.202 0.012,-0.367 0.078,-0.494 0.231,-0.438 0.92,-0.355 2.064,0.248 0.636,0.336 0.954,0.681 0.953,1.032 -0.001,0.353 -0.233,0.97 -0.699,1.854 l -0.57,1.081 c -3.639,-1.701 -5.933,-1.651 -6.883,0.15 -0.306,0.58 -0.346,1.186 -0.117,1.815 0.227,0.63 0.708,1.14 1.443,1.528 1.11,0.584 2.377,0.53 3.801,-0.164 -0.406,1.231 -0.117,2.105 0.864,2.624 1.019,0.536 1.891,0.338 2.619,-0.598 l -0.254,-0.134 c -0.423,0.219 -0.763,0.262 -1.018,0.128 -0.169,-0.089 -0.257,-0.226 -0.264,-0.41 -0.007,-0.184 0.141,-0.563 0.443,-1.136 l 2.058,-3.901 c 0.312,-0.593 0.502,-1.08 0.574,-1.46 0.067,-0.376 -0.06,-0.791 -0.381,-1.241 z m -3.749,4.433 c -0.261,0.495 -0.522,0.854 -0.785,1.076 -0.262,0.225 -0.635,0.387 -1.118,0.488 -0.482,0.102 -0.933,0.043 -1.35,-0.176 -0.325,-0.172 -0.545,-0.455 -0.657,-0.849 -0.113,-0.394 -0.045,-0.828 0.205,-1.302 0.343,-0.649 0.813,-1.036 1.412,-1.158 0.597,-0.124 1.563,0.135 2.896,0.775 l -0.603,1.146 z" />
		<path
   style="fill:#ffffff"
   inkscape:connector-curvature="0"
   id="path29"
   d="m 42.877,35.813 c -0.123,0.313 -0.414,0.504 -0.875,0.572 -0.398,0.058 -0.768,0.021 -1.107,-0.114 -0.271,-0.106 -0.492,-0.248 -0.66,-0.425 -0.219,-0.229 -0.282,-0.463 -0.188,-0.699 0.115,-0.296 0.41,-0.457 0.888,-0.484 0.381,-0.024 0.739,0.029 1.071,0.159 0.238,0.094 0.435,0.212 0.588,0.354 l 0.906,-2.308 -3.619,0.155 -1.252,3.188 c -0.123,0.309 -0.41,0.503 -0.866,0.582 -0.4,0.069 -0.768,0.038 -1.1,-0.093 -0.269,-0.104 -0.487,-0.247 -0.655,-0.424 -0.221,-0.226 -0.284,-0.458 -0.188,-0.699 0.114,-0.291 0.407,-0.454 0.881,-0.486 0.382,-0.024 0.74,0.029 1.073,0.16 0.227,0.089 0.417,0.203 0.568,0.342 l 1.615,-4.111 4.696,-0.188 -1.776,4.519 z" />
		<path
   style="fill:#ffffff"
   inkscape:connector-curvature="0"
   id="path31"
   d="m 42.484,27.632 c 0.063,0.528 0.248,1.15 0.248,1.15 0,0 0.369,-0.929 0.342,-1.275 -0.037,-0.513 -0.412,-0.909 -0.412,-0.909 0,0 -0.24,0.505 -0.178,1.034 z" />
	</g>
</g></g>
</svg>