<?xml version="1.0" encoding="utf-8"?>
<!-- Generator: Adobe Illustrator 15.1.0, SVG Export Plug-In . SVG Version: 6.00 Build 0)  -->
<!DOCTYPE svg PUBLIC "-//W3C//DTD SVG 1.1//EN" "http://www.w3.org/Graphics/SVG/1.1/DTD/svg11.dtd">
<svg version="1.1" id="Layer_2" xmlns="http://www.w3.org/2000/svg" xmlns:xlink="http://www.w3.org/1999/xlink" x="0px" y="0px"
	 width="75px" height="75px" viewBox="0 0 75 75" enable-background="new 0 0 75 75" xml:space="preserve">
<g id="dialog-ok_1_">
	<path fill="#1C4A61" d="M37.498,15C25.07,15,15,25.07,15,37.498C15,49.923,25.07,60,37.498,60C49.928,60,60,49.923,60,37.498
		C60,25.07,49.928,15,37.498,15z"/>
</g>
<path fill="#C2C079" d="M37.5,22.5c-8.285,0-15,6.713-15,14.998c0,8.283,6.715,15.001,15,15.001s15-6.719,15-15.001
	C52.5,29.213,45.785,22.5,37.5,22.5z M37.484,46.018c-4.713,0-8.531-3.822-8.531-8.533c0-4.712,3.818-8.53,8.531-8.53
	s8.531,3.818,8.531,8.53C46.016,42.195,42.197,46.018,37.484,46.018z"/>
</svg>
