<?xml version="1.0" encoding="UTF-8" standalone="no"?>
<!-- Generator: Adobe Illustrator 15.1.0, SVG Export Plug-In . SVG Version: 6.00 Build 0)  -->

<svg
   xmlns:dc="http://purl.org/dc/elements/1.1/"
   xmlns:cc="http://creativecommons.org/ns#"
   xmlns:rdf="http://www.w3.org/1999/02/22-rdf-syntax-ns#"
   xmlns:svg="http://www.w3.org/2000/svg"
   xmlns="http://www.w3.org/2000/svg"
   xmlns:sodipodi="http://sodipodi.sourceforge.net/DTD/sodipodi-0.dtd"
   xmlns:inkscape="http://www.inkscape.org/namespaces/inkscape"
   version="1.1"
   id="Layer_1"
   x="0px"
   y="0px"
   width="75px"
   height="75px"
   viewBox="0 0 75 75"
   enable-background="new 0 0 75 75"
   xml:space="preserve"
   inkscape:version="0.48.3.1 r9886"
   sodipodi:docname="bookreader-guide.svg"><metadata
   id="metadata15"><rdf:RDF><cc:Work
       rdf:about=""><dc:format>image/svg+xml</dc:format><dc:type
         rdf:resource="http://purl.org/dc/dcmitype/StillImage" /></cc:Work></rdf:RDF></metadata><defs
   id="defs13" /><sodipodi:namedview
   pagecolor="#ffffff"
   bordercolor="#666666"
   borderopacity="1"
   objecttolerance="10"
   gridtolerance="10"
   guidetolerance="10"
   inkscape:pageopacity="0"
   inkscape:pageshadow="2"
   inkscape:window-width="640"
   inkscape:window-height="480"
   id="namedview11"
   showgrid="false"
   inkscape:zoom="3.1466667"
   inkscape:cx="37.5"
   inkscape:cy="36.705508"
   inkscape:window-x="0"
   inkscape:window-y="0"
   inkscape:window-maximized="0"
   inkscape:current-layer="Layer_1" />

<g
   id="g5">
	<path
   fill="#C1BF79"
   stroke="#1C4B61"
   stroke-width="3.5"
   stroke-linecap="round"
   stroke-linejoin="round"
   d="M37.961,44.975   v-3.025c0-0.783,0.021-1.385,0.064-1.803c0.041-0.438,0.104-0.711,0.127-0.795c0.039-0.123,0.131-0.33,0.352-0.631   c0.17-0.23,0.553-0.688,1.396-1.534l2.148-2.098c1.666-1.591,2.822-3.021,3.533-4.376c0.758-1.441,1.141-2.985,1.141-4.587   c0-3.271-1.18-5.955-3.508-7.977c-2.236-1.946-5.174-2.933-8.731-2.933c-1.892,0-3.752,0.261-5.527,0.777   c-1.77,0.514-3.527,1.297-5.223,2.328c-0.662,0.403-1.067,1.123-1.067,1.898v4.627c0,0.826,0.458,1.583,1.19,1.967   c0.324,0.169,0.678,0.253,1.031,0.253c0.443,0,0.885-0.133,1.263-0.394c1.438-0.995,2.829-1.759,4.134-2.27   c1.203-0.47,2.326-0.708,3.34-0.708c1.244,0,2.174,0.273,2.84,0.832c0.575,0.483,0.82,1.034,0.82,1.844   c0,0.434-0.117,0.861-0.354,1.3c-0.308,0.562-0.843,1.199-1.647,1.946L33.1,31.779c-1.711,1.634-2.827,3.087-3.413,4.445   c-0.585,1.363-0.869,2.987-0.869,4.966v3.785c0,0.715,0.338,1.352,0.863,1.758h7.418C37.624,46.326,37.961,45.689,37.961,44.975z"
   id="path7" />
	<path
   fill="#C1BF79"
   stroke="#1C4B61"
   stroke-width="3.5"
   stroke-linecap="round"
   stroke-linejoin="round"
   d="M37.099,49.879   h-7.418c-0.608,0.396-1.01,1.082-1.01,1.861v6.254c0,1.227,0.994,2.221,2.221,2.221h4.997c1.226,0,2.22-0.994,2.22-2.221V51.74   C38.109,50.961,37.708,50.275,37.099,49.879z"
   id="path9" />
</g>
</svg>