<?xml version="1.0" encoding="UTF-8" standalone="no"?>
<!-- Generator: Adobe Illustrator 15.1.0, SVG Export Plug-In . SVG Version: 6.00 Build 0)  -->

<svg
   xmlns:dc="http://purl.org/dc/elements/1.1/"
   xmlns:cc="http://creativecommons.org/ns#"
   xmlns:rdf="http://www.w3.org/1999/02/22-rdf-syntax-ns#"
   xmlns:svg="http://www.w3.org/2000/svg"
   xmlns="http://www.w3.org/2000/svg"
   xmlns:sodipodi="http://sodipodi.sourceforge.net/DTD/sodipodi-0.dtd"
   xmlns:inkscape="http://www.inkscape.org/namespaces/inkscape"
   version="1.1"
   x="0px"
   y="0px"
   width="75"
   height="75"
   viewBox="0 0 75 75"
   enable-background="new 0 0 150 195"
   xml:space="preserve"
   id="svg2"
   inkscape:version="0.48.4 r9939"
   sodipodi:docname="bookreader-read-large-over.svg"><metadata
     id="metadata52"><rdf:RDF><cc:Work
         rdf:about=""><dc:format>image/svg+xml</dc:format><dc:type
           rdf:resource="http://purl.org/dc/dcmitype/StillImage" /></cc:Work></rdf:RDF></metadata><defs
     id="defs50" /><sodipodi:namedview
     pagecolor="#ffffff"
     bordercolor="#666666"
     borderopacity="1"
     objecttolerance="10"
     gridtolerance="10"
     guidetolerance="10"
     inkscape:pageopacity="0"
     inkscape:pageshadow="2"
     inkscape:window-width="1366"
     inkscape:window-height="713"
     id="namedview48"
     showgrid="false"
     inkscape:snap-global="false"
     inkscape:zoom="9.6820517"
     inkscape:cx="89.718848"
     inkscape:cy="22.285742"
     inkscape:window-x="-4"
     inkscape:window-y="-3"
     inkscape:window-maximized="1"
     inkscape:current-layer="svg2" /><g
     id="g5"
     transform="matrix(0.623295,0,0,0.623295,-9.250888,-4.4658956)"><path
       style="fill:#c1bf79"
       inkscape:connector-curvature="0"
       id="path7"
       d="m 124.2075,106.5052 c 0,10.26636 -6.6089,18.5895 -14.76225,18.5895 l -68.8905,0 c -8.153355,0 -14.76225,-8.32314 -14.76225,-18.5895 l 0,-76.0104 c 0,-10.266361 6.608895,-18.5895 14.76225,-18.5895 l 68.8905,0 c 8.15335,0 14.76225,8.323139 14.76225,18.5895 z"
       sodipodi:nodetypes="sssssssss" /><path
       style="fill:#eaecd2"
       inkscape:connector-curvature="0"
       id="path9"
       d="m 40.55475,122.203 c -6.87396,0 -12.4659,-7.0417 -12.4659,-15.6978 l 0,-76.0104 c 0,-8.656097 5.59194,-15.6978 12.4659,-15.6978 l 68.8905,0 c 6.87396,0 12.4659,7.041703 12.4659,15.6978 l 0,76.0104 c 0,8.6561 -5.59194,15.6978 -12.4659,15.6978 z"
       sodipodi:nodetypes="sssssssss" /><g
       id="g11" /><g
       id="g39"><path
         style="font-size:medium;font-style:normal;font-variant:normal;font-weight:normal;font-stretch:normal;text-indent:0;text-align:start;text-decoration:none;line-height:normal;letter-spacing:normal;word-spacing:normal;text-transform:none;direction:ltr;block-progression:tb;writing-mode:lr-tb;text-anchor:start;baseline-shift:baseline;color:#000000;fill:#1c4b61;fill-opacity:1;fill-rule:nonzero;stroke:none;stroke-width:3.5;marker:none;visibility:visible;display:inline;overflow:visible;enable-background:accumulate;font-family:Sans;-inkscape-font-specification:Sans"
         d="m 33.599624,84.57335 c -0.776692,0.0697 -1.437417,0.79519 -1.434375,1.575 l 0,11.86875 c 8.2e-5,0.82465 0.750354,1.57492 1.575,1.575 l 7.70625,0 24.91875,0 c 0.776124,4.32284 4.408136,7.67427 8.94375,7.67813 4.537054,0 8.167658,-3.35458 8.94375,-7.67813 l 24.918751,0 7.70625,0 c 0.82465,-8e-5 1.57492,-0.75035 1.575,-1.575 l 0,-11.86875 c -8e-5,-0.82465 -0.75035,-1.57492 -1.575,-1.575 l -7.70625,0 -26.184376,0 c -3.281699,0 -6.032965,1.82305 -7.678125,4.41563 -1.645159,-2.59258 -4.405956,-4.1657 -7.678125,-4.41563 l -26.184375,0 -7.70625,0 c -0.04684,-0.002 -0.09378,-0.002 -0.140625,0 z m 1.715625,3.15 6.13125,0 26.184375,0 c 3.389759,0 6.103125,2.71121 6.103125,6.10313 0.01156,0.81724 0.757675,1.55288 1.575,1.55288 0.817325,0 1.563442,-0.73564 1.575,-1.55288 0,-3.39192 2.713367,-6.10313 6.103125,-6.10313 l 26.184376,0 6.13125,0 0,8.71875 -6.13125,0 -26.184376,0 c -0.824646,8e-5 -1.574918,0.75035 -1.575,1.575 0,3.393 -2.713143,6.10313 -6.103125,6.10313 -3.391597,-0.003 -6.103125,-2.71013 -6.103125,-6.10313 -8.2e-5,-0.82465 -0.750354,-1.57492 -1.575,-1.575 l -26.184375,0 -6.13125,0 z"
         id="path41"
         inkscape:connector-curvature="0"
         sodipodi:nodetypes="ccccccccccccccscscccccscscscccccccccccc" /><path
         style="font-size:medium;font-style:normal;font-variant:normal;font-weight:normal;font-stretch:normal;text-indent:0;text-align:start;text-decoration:none;line-height:normal;letter-spacing:normal;word-spacing:normal;text-transform:none;direction:ltr;block-progression:tb;writing-mode:lr-tb;text-anchor:start;baseline-shift:baseline;color:#000000;fill:#1c4b61;fill-opacity:1;fill-rule:nonzero;stroke:none;stroke-width:3.5;marker:none;visibility:visible;display:inline;overflow:visible;enable-background:accumulate;font-family:Sans;-inkscape-font-specification:Sans"
         d="m 82.9875,30.022209 c -5.093419,0 -9.253125,4.157326 -9.253125,9.253125 l 0,54.84375 c 0.01156,0.817244 0.757675,1.552886 1.575,1.552886 0.817325,0 1.563442,-0.735642 1.575,-1.552886 0,-3.39192 2.713367,-6.103125 6.103125,-6.103125 l 26.18438,0 7.70625,0 c 0.82465,-8.2e-5 1.57492,-0.750354 1.575,-1.575 l 0,-54.84375 c -8e-5,-0.824646 -0.75035,-1.574918 -1.575,-1.575 z m 0,3.15 32.31563,0 0,51.69375 -6.13125,0 -26.18438,0 c -2.364527,0 -4.462654,0.975422 -6.103125,2.446875 l 0,-48.0375 c 0,-3.393001 2.713144,-6.103125 6.103125,-6.103125 z"
         id="path43"
         inkscape:connector-curvature="0"
         sodipodi:nodetypes="sscscscccccsscccscss" /><path
         style="font-size:medium;font-style:normal;font-variant:normal;font-weight:normal;font-stretch:normal;text-indent:0;text-align:start;text-decoration:none;line-height:normal;letter-spacing:normal;word-spacing:normal;text-transform:none;direction:ltr;block-progression:tb;writing-mode:lr-tb;text-anchor:start;baseline-shift:baseline;color:#000000;fill:#1c4b61;fill-opacity:1;fill-rule:nonzero;stroke:none;stroke-width:3.5;marker:none;visibility:visible;display:inline;overflow:visible;enable-background:accumulate;font-family:Sans;-inkscape-font-specification:Sans"
         d="m 33.631249,29.93585 c -0.776692,0.06969 -1.437417,0.795193 -1.434375,1.575 l 0,54.84375 c 8.2e-5,0.824646 0.750354,1.574918 1.575,1.575 l 7.70625,0 26.184375,0 c 3.389759,0 6.103125,2.711205 6.103125,6.103125 l 3.15,0 0,-54.84375 c 0,-5.09508 -4.159483,-9.253125 -9.253125,-9.253125 l -33.890625,0 c -0.04684,-0.0021 -0.09378,-0.0021 -0.140625,0 z m 1.715625,3.15 32.315625,0 c 3.389759,0 6.103125,2.711205 6.103125,6.103125 l 0,48.0375 C 72.125153,85.755022 70.027026,84.7796 67.662499,84.7796 l -26.184375,0 -6.13125,0 z"
         id="path45"
         inkscape:connector-curvature="0"
         sodipodi:nodetypes="cccccsccsscccsscsccc" /></g></g><g
     id="Layer_3"
     transform="translate(0,-120)" /></svg>