<?xml version="1.0" encoding="utf-8"?>
<!-- Generator: Adobe Illustrator 15.1.0, SVG Export Plug-In . SVG Version: 6.00 Build 0)  -->
<!DOCTYPE svg PUBLIC "-//W3C//DTD SVG 1.1//EN" "http://www.w3.org/Graphics/SVG/1.1/DTD/svg11.dtd">
<svg version="1.1" id="Layer_1" xmlns="http://www.w3.org/2000/svg" xmlns:xlink="http://www.w3.org/1999/xlink" x="0px" y="0px"
	 width="75px" height="75px" viewBox="0 0 75 75" enable-background="new 0 0 75 75" xml:space="preserve">
<g>
	<g id="emblem-download_2_">
		<g id="Cursor_2_">
			<g>
				<path fill="#1C4B61" d="M34.479,36.705c0.204-0.203,0.471-0.303,0.737-0.305h2.115l-4.08-4.08
					c-0.188-0.188-0.305-0.447-0.305-0.736c0.001-0.574,0.467-1.041,1.041-1.041c0.289,0,0.548,0.117,0.736,0.305l4.08,4.08v-2.115
					c0-0.266,0.102-0.533,0.305-0.736c0.406-0.406,1.065-0.406,1.474,0c0.203,0.203,0.306,0.471,0.306,0.736v4.199l0,0l0,0v1.472
					h-5.672c-0.266-0.002-0.532-0.102-0.735-0.305C34.073,37.771,34.073,37.113,34.479,36.705z"/>
			</g>
			<g>
				<path fill="#1C4B61" d="M34.479,36.705c0.204-0.203,0.471-0.303,0.737-0.305h2.115l-4.08-4.08
					c-0.188-0.188-0.305-0.447-0.305-0.736c0.001-0.574,0.467-1.041,1.041-1.041c0.289,0,0.548,0.117,0.736,0.305l4.08,4.08v-2.115
					c0-0.266,0.102-0.533,0.305-0.736c0.406-0.406,1.065-0.406,1.474,0c0.203,0.203,0.306,0.471,0.306,0.736v4.199l0,0l0,0v1.472
					h-5.672c-0.266-0.002-0.532-0.102-0.735-0.305C34.073,37.771,34.073,37.113,34.479,36.705z"/>
			</g>
		</g>
	</g>
	<g>
		<g>
			<path fill="#1C4B61" d="M39.654,22.922H15v3.563h10.344v25.594h3.97V26.484h10.342v-3.562H39.654z"/>
		</g>
	</g>
	<g>
		<g>
			<path fill="#1C4B61" d="M59.999,34.922H43.343v3.563h6.345v13.595h3.97V38.484H60L59.999,34.922L59.999,34.922z"/>
		</g>
	</g>
</g>
</svg>
