<?xml version="1.0" encoding="utf-8"?>
<!-- Generator: Adobe Illustrator 15.1.0, SVG Export Plug-In . SVG Version: 6.00 Build 0)  -->
<!DOCTYPE svg PUBLIC "-//W3C//DTD SVG 1.1//EN" "http://www.w3.org/Graphics/SVG/1.1/DTD/svg11.dtd">
<svg version="1.1" id="Layer_2" xmlns="http://www.w3.org/2000/svg" xmlns:xlink="http://www.w3.org/1999/xlink" x="0px" y="0px"
	 width="75px" height="75px" viewBox="0 0 75 75" enable-background="new 0 0 75 75" xml:space="preserve">
<rect fill="#303030" width="75" height="75"/>
<g>
	<g id="libro_3_">
		<path fill="#4BADDE" stroke="#1C4B61" stroke-width="3.5" stroke-linecap="round" stroke-linejoin="round" d="M24.905,16.542
			c-1.698,0-3.074,1.377-3.074,3.073v35.769c0-1.697,1.376-3.072,3.074-3.072h25.189h3.074v-35.77H24.905z"/>
		<path fill="#C1BF79" stroke="#1C4B61" stroke-width="3.5" stroke-linecap="round" stroke-linejoin="round" d="M50.095,55.384
			c0-1.697,1.377-3.072,3.074-3.072h-3.074H24.905c-1.698,0-3.074,1.375-3.074,3.072c0,1.699,1.376,3.074,3.074,3.074h28.264
			C51.472,58.458,50.095,57.083,50.095,55.384z"/>
		
			<line fill="#FFFFFF" stroke="#1C4B61" stroke-width="3.5" stroke-linecap="round" stroke-linejoin="round" x1="26.972" y1="16.542" x2="26.972" y2="52.312"/>
	</g>
	<circle fill="#1C4B61" cx="36.587" cy="28.353" r="1.75"/>
	<circle fill="#1C4B61" cx="43.915" cy="28.353" r="1.717"/>
	<path fill="none" stroke="#1C4B61" stroke-width="3.5" stroke-linecap="round" stroke-linejoin="round" d="M33.104,35.482
		c1.15,2.819,3.915,4.808,7.147,4.808c3.233,0,5.998-1.988,7.148-4.808"/>
</g>
</svg>
