<?xml version="1.0" encoding="utf-8"?>
<!-- Generator: Adobe Illustrator 15.1.0, SVG Export Plug-In . SVG Version: 6.00 Build 0)  -->
<!DOCTYPE svg PUBLIC "-//W3C//DTD SVG 1.1//EN" "http://www.w3.org/Graphics/SVG/1.1/DTD/svg11.dtd">
<svg version="1.1" id="Layer_2" xmlns="http://www.w3.org/2000/svg" xmlns:xlink="http://www.w3.org/1999/xlink" x="0px" y="0px"
	 width="225px" height="112.5px" viewBox="0 0 225 112.5" enable-background="new 0 0 225 112.5" xml:space="preserve">
<path fill="#C1BF79" d="M225,90c0,12.427-10.073,22.5-22.5,22.5h-180C10.073,112.5,0,102.427,0,90V22.5C0,10.073,10.073,0,22.5,0
	h180C214.927,0,225,10.073,225,22.5V90z"/>
<g>
	<path d="M28.531,35.573h3.85c2.684,0,4.654,0.558,5.91,1.675c1.255,1.116,1.883,2.861,1.883,5.236c0,2.389-0.631,4.142-1.893,5.261
		c-1.262,1.12-3.229,1.679-5.9,1.679h-3.85V35.573z M30.405,37.113v10.771h2.264c1.911,0,3.311-0.434,4.198-1.299
		c0.887-0.866,1.331-2.232,1.331-4.102c0-1.855-0.444-3.214-1.331-4.077c-0.888-0.862-2.287-1.294-4.198-1.294H30.405z"/>
	<path d="M51.975,43.803v0.834h-7.849c0.074,1.176,0.428,2.07,1.062,2.687c0.634,0.615,1.517,0.923,2.649,0.923
		c0.655,0,1.291-0.08,1.907-0.241c0.615-0.161,1.226-0.401,1.832-0.724v1.614c-0.612,0.26-1.24,0.458-1.883,0.594
		c-0.644,0.136-1.296,0.204-1.958,0.204c-1.658,0-2.97-0.482-3.938-1.447c-0.968-0.965-1.452-2.27-1.452-3.915
		c0-1.7,0.459-3.051,1.377-4.05c0.919-0.998,2.157-1.498,3.716-1.498c1.397,0,2.503,0.45,3.316,1.35
		C51.568,41.033,51.975,42.256,51.975,43.803z M50.268,43.301c-0.013-0.934-0.274-1.679-0.784-2.235
		c-0.511-0.557-1.187-0.835-2.027-0.835c-0.953,0-1.715,0.27-2.287,0.807c-0.572,0.539-0.901,1.297-0.988,2.273L50.268,43.301z"/>
	<path d="M61.401,39.34v1.614c-0.482-0.247-0.983-0.433-1.503-0.557s-1.058-0.186-1.614-0.186c-0.848,0-1.483,0.13-1.907,0.39
		c-0.423,0.26-0.635,0.649-0.635,1.169c0,0.396,0.151,0.706,0.455,0.933c0.303,0.226,0.912,0.44,1.828,0.645l0.584,0.13
		c1.212,0.26,2.073,0.626,2.584,1.1c0.51,0.473,0.765,1.134,0.765,1.98c0,0.965-0.382,1.729-1.146,2.292
		c-0.764,0.563-1.813,0.844-3.149,0.844c-0.557,0-1.137-0.055-1.739-0.162c-0.604-0.108-1.239-0.271-1.907-0.487v-1.763
		c0.631,0.328,1.252,0.574,1.865,0.737c0.612,0.164,1.218,0.246,1.818,0.246c0.804,0,1.422-0.138,1.855-0.413
		c0.433-0.275,0.649-0.663,0.649-1.164c0-0.464-0.156-0.819-0.469-1.066c-0.312-0.248-0.997-0.486-2.055-0.715l-0.594-0.139
		c-1.058-0.223-1.822-0.564-2.292-1.025c-0.47-0.461-0.705-1.094-0.705-1.897c0-0.978,0.346-1.731,1.039-2.264
		c0.692-0.532,1.676-0.798,2.95-0.798c0.631,0,1.225,0.047,1.781,0.139C60.417,39.016,60.931,39.154,61.401,39.34z"/>
	<path d="M72.153,39.433v1.596c-0.482-0.266-0.966-0.466-1.452-0.599c-0.485-0.133-0.976-0.199-1.47-0.199
		c-1.107,0-1.967,0.352-2.579,1.053c-0.612,0.702-0.918,1.688-0.918,2.955s0.306,2.253,0.918,2.955
		c0.612,0.701,1.472,1.053,2.579,1.053c0.495,0,0.985-0.066,1.47-0.199c0.486-0.133,0.97-0.332,1.452-0.599v1.577
		c-0.477,0.223-0.97,0.39-1.479,0.501c-0.511,0.111-1.053,0.167-1.628,0.167c-1.565,0-2.808-0.492-3.729-1.475
		c-0.922-0.984-1.382-2.311-1.382-3.98c0-1.694,0.465-3.027,1.396-3.998c0.931-0.971,2.206-1.457,3.827-1.457
		c0.525,0,1.039,0.055,1.54,0.162C71.198,39.054,71.683,39.217,72.153,39.433z"/>
	<path d="M83.249,43.496v5.928h-1.707v-1.576c-0.39,0.631-0.875,1.096-1.457,1.396c-0.582,0.3-1.293,0.45-2.134,0.45
		c-1.064,0-1.91-0.299-2.538-0.896c-0.627-0.597-0.941-1.396-0.941-2.397c0-1.17,0.391-2.051,1.174-2.645
		c0.782-0.594,1.949-0.891,3.502-0.891h2.394v-0.167c0-0.785-0.258-1.394-0.774-1.823c-0.517-0.43-1.242-0.645-2.176-0.645
		c-0.594,0-1.172,0.071-1.735,0.213c-0.563,0.143-1.104,0.356-1.624,0.641v-1.577c0.625-0.241,1.23-0.422,1.818-0.543
		c0.587-0.12,1.16-0.181,1.716-0.181c1.503,0,2.625,0.39,3.368,1.169S83.249,41.913,83.249,43.496z M79.844,44.201
		c-1.379,0-2.335,0.158-2.867,0.473c-0.532,0.316-0.798,0.854-0.798,1.615c0,0.605,0.199,1.086,0.599,1.442
		c0.398,0.355,0.941,0.533,1.628,0.533c0.946,0,1.706-0.335,2.277-1.007c0.572-0.671,0.858-1.563,0.858-2.676v-0.381H79.844z"/>
	<path d="M92.786,40.629c-0.192-0.111-0.4-0.193-0.626-0.245c-0.226-0.053-0.475-0.079-0.747-0.079
		c-0.965,0-1.706,0.314-2.222,0.941c-0.517,0.628-0.775,1.529-0.775,2.705v5.473H86.7V39.033h1.716v1.615
		c0.358-0.631,0.826-1.1,1.401-1.406c0.575-0.306,1.274-0.459,2.097-0.459c0.117,0,0.247,0.008,0.39,0.023
		c0.142,0.016,0.3,0.039,0.473,0.069L92.786,40.629z"/>
	<path d="M102.787,48.135c0,1.769-0.393,3.085-1.178,3.947c-0.786,0.863-1.989,1.295-3.609,1.295c-0.6,0-1.166-0.045-1.698-0.135
		c-0.532-0.09-1.048-0.228-1.549-0.413v-1.661c0.501,0.272,0.996,0.474,1.484,0.604c0.488,0.13,0.986,0.195,1.494,0.195
		c1.119,0,1.958-0.293,2.514-0.877c0.557-0.585,0.835-1.468,0.835-2.648v-0.845c-0.353,0.612-0.804,1.07-1.354,1.373
		c-0.551,0.304-1.209,0.454-1.976,0.454c-1.274,0-2.301-0.484-3.08-1.456c-0.779-0.971-1.169-2.257-1.169-3.859
		c0-1.608,0.39-2.897,1.169-3.868s1.806-1.457,3.08-1.457c0.767,0,1.425,0.152,1.976,0.455c0.55,0.303,1.002,0.76,1.354,1.373
		v-1.578h1.707V48.135z M101.08,44.108c0-1.237-0.255-2.195-0.766-2.876c-0.51-0.68-1.226-1.021-2.147-1.021
		c-0.916,0-1.628,0.341-2.139,1.021c-0.51,0.681-0.765,1.639-0.765,2.876c0,1.231,0.255,2.187,0.765,2.866
		c0.511,0.682,1.223,1.021,2.139,1.021c0.921,0,1.638-0.34,2.147-1.021C100.825,46.295,101.08,45.34,101.08,44.108z"/>
	<path d="M114.43,43.496v5.928h-1.707v-1.576c-0.39,0.631-0.875,1.096-1.457,1.396c-0.582,0.3-1.293,0.45-2.134,0.45
		c-1.064,0-1.91-0.299-2.537-0.896c-0.628-0.597-0.942-1.396-0.942-2.397c0-1.17,0.391-2.051,1.173-2.645
		c0.783-0.594,1.95-0.891,3.502-0.891h2.394v-0.167c0-0.785-0.258-1.394-0.775-1.823c-0.516-0.43-1.242-0.645-2.175-0.645
		c-0.594,0-1.172,0.071-1.735,0.213c-0.563,0.143-1.104,0.356-1.624,0.641v-1.577c0.625-0.241,1.23-0.422,1.818-0.543
		c0.587-0.12,1.16-0.181,1.716-0.181c1.503,0,2.625,0.39,3.367,1.169C114.059,40.731,114.43,41.913,114.43,43.496z M111.025,44.201
		c-1.379,0-2.335,0.158-2.867,0.473c-0.532,0.316-0.798,0.854-0.798,1.615c0,0.605,0.2,1.086,0.598,1.442
		c0.399,0.355,0.942,0.533,1.628,0.533c0.946,0,1.706-0.335,2.278-1.007c0.572-0.671,0.858-1.563,0.858-2.676v-0.381H111.025z"/>
	<path d="M123.967,40.629c-0.191-0.111-0.4-0.193-0.626-0.245c-0.226-0.053-0.475-0.079-0.747-0.079
		c-0.965,0-1.705,0.314-2.222,0.941c-0.517,0.628-0.774,1.529-0.774,2.705v5.473h-1.717V39.033h1.717v1.615
		c0.358-0.631,0.826-1.1,1.4-1.406c0.576-0.306,1.274-0.459,2.098-0.459c0.117,0,0.246,0.008,0.389,0.023s0.301,0.039,0.474,0.069
		L123.967,40.629z"/>
	<path d="M36.584,66.296v5.929h-1.707v-1.578c-0.39,0.631-0.875,1.097-1.457,1.396c-0.582,0.301-1.293,0.45-2.134,0.45
		c-1.064,0-1.91-0.298-2.538-0.896c-0.627-0.597-0.941-1.396-0.941-2.398c0-1.168,0.391-2.05,1.174-2.644
		c0.782-0.594,1.949-0.891,3.502-0.891h2.394v-0.167c0-0.785-0.258-1.393-0.774-1.823c-0.517-0.43-1.242-0.645-2.176-0.645
		c-0.594,0-1.172,0.071-1.735,0.214c-0.563,0.143-1.104,0.355-1.624,0.64v-1.577c0.625-0.241,1.23-0.422,1.818-0.543
		c0.587-0.12,1.16-0.181,1.716-0.181c1.503,0,2.625,0.39,3.368,1.169S36.584,64.713,36.584,66.296z M33.179,67.001
		c-1.379,0-2.335,0.157-2.867,0.474c-0.532,0.314-0.798,0.854-0.798,1.613c0,0.607,0.199,1.088,0.599,1.443
		c0.398,0.355,0.941,0.533,1.628,0.533c0.946,0,1.706-0.336,2.277-1.007c0.572-0.671,0.858-1.563,0.858-2.677v-0.38H33.179z"/>
	<path d="M46.214,58.373h2.792l3.535,9.426l3.553-9.426h2.792v13.852h-1.828V60.062l-3.572,9.5h-1.883l-3.572-9.5v12.163h-1.818
		V58.373z"/>
	<path d="M62.533,57.789h1.707v2.161h-1.707V57.789z M62.533,61.834h1.707v10.391h-1.707V61.834z"/>
	<path d="M74.436,62.14v1.614c-0.482-0.247-0.983-0.433-1.503-0.557c-0.52-0.123-1.058-0.186-1.614-0.186
		c-0.848,0-1.483,0.13-1.906,0.39c-0.424,0.26-0.636,0.649-0.636,1.169c0,0.396,0.151,0.707,0.455,0.933
		c0.303,0.226,0.912,0.44,1.828,0.645l0.584,0.13c1.212,0.26,2.074,0.626,2.583,1.1c0.511,0.473,0.766,1.133,0.766,1.98
		c0,0.965-0.382,1.729-1.146,2.291c-0.764,0.563-1.814,0.845-3.15,0.845c-0.557,0-1.136-0.054-1.74-0.162
		c-0.603-0.108-1.238-0.271-1.906-0.487v-1.763c0.631,0.328,1.252,0.573,1.865,0.737s1.218,0.246,1.818,0.246
		c0.804,0,1.422-0.138,1.855-0.413c0.433-0.274,0.649-0.663,0.649-1.164c0-0.464-0.156-0.819-0.468-1.067
		c-0.313-0.246-0.998-0.484-2.055-0.714l-0.594-0.14c-1.058-0.223-1.822-0.564-2.292-1.024c-0.47-0.461-0.705-1.093-0.705-1.897
		c0-0.977,0.346-1.731,1.039-2.264c0.692-0.531,1.676-0.798,2.95-0.798c0.631,0,1.225,0.046,1.781,0.14
		C73.452,61.814,73.965,61.954,74.436,62.14z"/>
	<path d="M83.824,58.373h1.874v12.273h6.745v1.578h-8.619V58.373z"/>
	<path d="M94.335,57.789h1.707v2.161h-1.707V57.789z M94.335,61.834h1.707v10.391h-1.707V61.834z"/>
	<path d="M101.266,63.41c0.358-0.617,0.812-1.077,1.359-1.377c0.547-0.301,1.201-0.45,1.962-0.45c1.262,0,2.287,0.501,3.075,1.503
		c0.789,1.002,1.183,2.319,1.183,3.952s-0.394,2.95-1.183,3.952c-0.788,1.002-1.813,1.503-3.075,1.503
		c-0.761,0-1.415-0.149-1.962-0.45c-0.548-0.3-1.001-0.759-1.359-1.377v1.559h-1.716V57.789h1.716V63.41z M107.073,67.038
		c0-1.255-0.258-2.24-0.774-2.955c-0.517-0.714-1.227-1.071-2.129-1.071c-0.903,0-1.613,0.357-2.129,1.071
		c-0.516,0.715-0.774,1.7-0.774,2.955c0,1.256,0.258,2.24,0.774,2.955c0.517,0.714,1.226,1.071,2.129,1.071
		c0.903,0,1.613-0.357,2.129-1.071C106.815,69.278,107.073,68.294,107.073,67.038z"/>
	<path d="M117.695,63.43c-0.191-0.111-0.4-0.193-0.626-0.246s-0.475-0.079-0.747-0.079c-0.965,0-1.705,0.313-2.222,0.941
		s-0.774,1.53-0.774,2.704v5.475h-1.716V61.834h1.716v1.613c0.358-0.631,0.826-1.099,1.4-1.405c0.576-0.306,1.274-0.459,2.098-0.459
		c0.117,0,0.246,0.008,0.389,0.023c0.143,0.015,0.301,0.038,0.474,0.069L117.695,63.43z"/>
	<path d="M123.096,61.583c1.484,0,2.649,0.482,3.497,1.447c0.847,0.965,1.271,2.301,1.271,4.008c0,1.701-0.424,3.035-1.271,4.003
		c-0.848,0.969-2.013,1.452-3.497,1.452c-1.491,0-2.658-0.483-3.503-1.452c-0.844-0.968-1.267-2.302-1.267-4.003
		c0-1.707,0.423-3.043,1.267-4.008C120.438,62.065,121.604,61.583,123.096,61.583z M123.096,63.03c-0.916,0-1.64,0.357-2.172,1.071
		c-0.531,0.715-0.797,1.693-0.797,2.937s0.264,2.222,0.793,2.937c0.528,0.714,1.254,1.071,2.176,1.071
		c0.908,0,1.629-0.358,2.161-1.076s0.798-1.694,0.798-2.932c0-1.23-0.266-2.206-0.798-2.927S124.004,63.03,123.096,63.03z"/>
	<path d="M137.317,62.14v1.614c-0.482-0.247-0.983-0.433-1.503-0.557c-0.52-0.123-1.058-0.186-1.614-0.186
		c-0.848,0-1.483,0.13-1.906,0.39c-0.424,0.26-0.636,0.649-0.636,1.169c0,0.396,0.151,0.707,0.455,0.933
		c0.303,0.226,0.912,0.44,1.827,0.645l0.585,0.13c1.211,0.26,2.073,0.626,2.583,1.1c0.511,0.473,0.766,1.133,0.766,1.98
		c0,0.965-0.382,1.729-1.146,2.291c-0.764,0.563-1.814,0.845-3.15,0.845c-0.557,0-1.136-0.054-1.739-0.162
		c-0.603-0.108-1.238-0.271-1.906-0.487v-1.763c0.631,0.328,1.253,0.573,1.864,0.737c0.613,0.164,1.219,0.246,1.818,0.246
		c0.805,0,1.423-0.138,1.855-0.413c0.434-0.274,0.65-0.663,0.65-1.164c0-0.464-0.156-0.819-0.469-1.067
		c-0.313-0.246-0.998-0.484-2.055-0.714l-0.594-0.14c-1.059-0.223-1.822-0.564-2.292-1.024c-0.47-0.461-0.705-1.093-0.705-1.897
		c0-0.977,0.347-1.731,1.039-2.264c0.692-0.531,1.676-0.798,2.95-0.798c0.631,0,1.225,0.046,1.781,0.14
		C136.334,61.814,136.848,61.954,137.317,62.14z"/>
</g>
<g id="emblem-download_1_">
	<g id="Cursor_1_">
		<g>
			<path fill="#EAECD2" stroke="#1C4B61" stroke-width="3.5" stroke-linecap="round" stroke-linejoin="round" d="M198.043,26.168
				c-1.068,0-2.026,0.432-2.73,1.13l-5.539,5.54V16.46c-0.002-0.981-0.377-1.974-1.13-2.726c-1.508-1.505-3.95-1.505-5.453,0
				c-0.758,0.752-1.128,1.738-1.133,2.726v16.375l-5.54-5.537c-0.698-0.701-1.661-1.13-2.728-1.13c-2.129,0-3.85,1.727-3.853,3.857
				c-0.003,1.063,0.435,2.032,1.126,2.726l10.994,10.997l0,0l0,0l3.86,3.857l14.85-14.854c0.696-0.693,1.126-1.659,1.131-2.726
				C201.898,27.892,200.169,26.168,198.043,26.168z"/>
		</g>
		<g>
			<path fill="#EAECD2" stroke="#1C4B61" stroke-width="3.5" stroke-linecap="round" stroke-linejoin="round" d="M198.043,26.168
				c-1.068,0-2.026,0.432-2.73,1.13l-5.539,5.54V16.46c-0.002-0.981-0.377-1.974-1.13-2.726c-1.508-1.505-3.95-1.505-5.453,0
				c-0.758,0.752-1.128,1.738-1.133,2.726v16.375l-5.54-5.537c-0.698-0.701-1.661-1.13-2.728-1.13c-2.129,0-3.85,1.727-3.853,3.857
				c-0.003,1.063,0.435,2.032,1.126,2.726l10.994,10.997l0,0l0,0l3.86,3.857l14.85-14.854c0.696-0.693,1.126-1.659,1.131-2.726
				C201.898,27.892,200.169,26.168,198.043,26.168z"/>
		</g>
	</g>
</g>
<g>
	<g id="libro_2_">
		<path fill="#4BADDE" stroke="#1C4B61" stroke-width="3.5" stroke-linecap="round" stroke-linejoin="round" d="M173.323,58.294
			c-1.698,0-3.074,1.377-3.074,3.074v35.769c0-1.697,1.376-3.073,3.074-3.073h25.189h3.074v-35.77H173.323z"/>
		<path fill="#C1BF79" stroke="#1C4B61" stroke-width="3.5" stroke-linecap="round" stroke-linejoin="round" d="M198.513,97.137
			c0-1.697,1.377-3.073,3.074-3.073h-3.074h-25.189c-1.698,0-3.074,1.376-3.074,3.073c0,1.698,1.376,3.074,3.074,3.074h28.264
			C199.89,100.211,198.513,98.835,198.513,97.137z"/>
		
			<line fill="#FFFFFF" stroke="#1C4B61" stroke-width="3.5" stroke-linecap="round" stroke-linejoin="round" x1="175.39" y1="58.294" x2="175.39" y2="94.063"/>
	</g>
	<circle fill="#1C4B61" cx="185.005" cy="70.104" r="1.75"/>
	<circle fill="#1C4B61" cx="192.333" cy="70.104" r="1.717"/>
	<path fill="none" stroke="#1C4B61" stroke-width="3.5" stroke-linecap="round" stroke-linejoin="round" d="M181.521,77.235
		c1.15,2.818,3.915,4.807,7.147,4.807c3.233,0,5.998-1.988,7.148-4.807"/>
</g>
</svg>
