<?xml version="1.0" encoding="UTF-8" standalone="no"?>
<!-- Generator: Adobe Illustrator 15.1.0, SVG Export Plug-In . SVG Version: 6.00 Build 0)  -->

<svg
   xmlns:dc="http://purl.org/dc/elements/1.1/"
   xmlns:cc="http://creativecommons.org/ns#"
   xmlns:rdf="http://www.w3.org/1999/02/22-rdf-syntax-ns#"
   xmlns:svg="http://www.w3.org/2000/svg"
   xmlns="http://www.w3.org/2000/svg"
   xmlns:sodipodi="http://sodipodi.sourceforge.net/DTD/sodipodi-0.dtd"
   xmlns:inkscape="http://www.inkscape.org/namespaces/inkscape"
   version="1.1"
   id="Layer_1"
   x="0px"
   y="0px"
   width="75px"
   height="75px"
   viewBox="0 0 75 75"
   enable-background="new 0 0 75 75"
   xml:space="preserve"
   inkscape:version="0.48.3.1 r9886"
   sodipodi:docname="bookreader-read.svg"><metadata
   id="metadata19"><rdf:RDF><cc:Work
       rdf:about=""><dc:format>image/svg+xml</dc:format><dc:type
         rdf:resource="http://purl.org/dc/dcmitype/StillImage" /></cc:Work></rdf:RDF></metadata><defs
   id="defs17" /><sodipodi:namedview
   pagecolor="#ffffff"
   bordercolor="#666666"
   borderopacity="1"
   objecttolerance="10"
   gridtolerance="10"
   guidetolerance="10"
   inkscape:pageopacity="0"
   inkscape:pageshadow="2"
   inkscape:window-width="640"
   inkscape:window-height="480"
   id="namedview15"
   showgrid="false"
   inkscape:zoom="3.1466667"
   inkscape:cx="37.5"
   inkscape:cy="37.5"
   inkscape:window-x="0"
   inkscape:window-y="0"
   inkscape:window-maximized="0"
   inkscape:current-layer="Layer_1" />


<g
   id="g7">
	<path
   fill="#C1BF79"
   stroke="#1C4B61"
   stroke-width="3.5"
   stroke-linecap="round"
   stroke-linejoin="round"
   d="M41.66,44.697   c-2.297,0-4.16,1.863-4.16,4.162c0-2.299-1.863-4.162-4.16-4.162H19.161H15v6.428h4.161H33.34c0,2.299,1.862,4.16,4.16,4.162h0.001   c2.297,0,4.161-1.863,4.161-4.162H55.84H60v-6.428h-4.16H41.66z"
   id="path9" />
	<path
   fill="#C1BF79"
   stroke="#1C4B61"
   stroke-width="3.5"
   stroke-linecap="round"
   stroke-linejoin="round"
   d="M37.5,19.161v29.698   c0-2.299,1.863-4.162,4.16-4.162h14.18H60V15H41.66C39.363,15,37.5,16.863,37.5,19.161z"
   id="path11" />
	<path
   fill="#C1BF79"
   stroke="#1C4B61"
   stroke-width="3.5"
   stroke-linecap="round"
   stroke-linejoin="round"
   d="M33.34,44.697   c2.297,0,4.16,1.863,4.16,4.162V19.161c0-2.298-1.863-4.161-4.16-4.161H15v29.697h4.161H33.34z"
   id="path13" />
</g>
</svg>