<?xml version="1.0" encoding="utf-8"?>
<!-- Generator: Adobe Illustrator 15.1.0, SVG Export Plug-In . SVG Version: 6.00 Build 0)  -->
<!DOCTYPE svg PUBLIC "-//W3C//DTD SVG 1.1//EN" "http://www.w3.org/Graphics/SVG/1.1/DTD/svg11.dtd">
<svg version="1.1" id="Layer_2" xmlns="http://www.w3.org/2000/svg" xmlns:xlink="http://www.w3.org/1999/xlink" x="0px" y="0px"
	 width="75px" height="75px" viewBox="0 0 75 75" enable-background="new 0 0 75 75" xml:space="preserve">
<rect width="75" height="75"/>
<g id="go-left_4_">
	<g>
		<path fill="#C1BF79" d="M59.061,28.619C59.684,29.244,60,30.065,60,30.889c0,0.822-0.316,1.646-0.939,2.271L53.228,39l5.802,5.657
			c0.645,0.63,0.967,1.464,0.967,2.3c0,0.809-0.305,1.621-0.914,2.246c-1.238,1.266-3.271,1.295-4.545,0.057l-8.127-7.93
			c0-0.002,0-0.002,0-0.002c-0.011-0.011-0.021-0.016-0.027-0.023c-0.115-0.115-0.208-0.244-0.303-0.37
			c-0.027-0.039-0.063-0.071-0.092-0.111c-0.076-0.114-0.134-0.239-0.195-0.36c-0.034-0.067-0.077-0.131-0.106-0.199
			c-0.039-0.1-0.063-0.203-0.093-0.307c-0.032-0.099-0.068-0.191-0.09-0.291c-0.018-0.084-0.018-0.17-0.028-0.252
			c-0.015-0.121-0.032-0.244-0.036-0.365c0-0.071,0.014-0.147,0.021-0.219c0.007-0.134,0.011-0.267,0.035-0.396
			c0.015-0.075,0.043-0.147,0.064-0.224c0.035-0.123,0.061-0.25,0.111-0.373c0.031-0.082,0.082-0.16,0.121-0.244
			c0.055-0.105,0.104-0.215,0.164-0.315c0.059-0.084,0.131-0.159,0.195-0.239c0.063-0.086,0.121-0.176,0.2-0.254
			c0.003-0.005,0.011-0.009,0.015-0.013c0.004-0.007,0.008-0.011,0.01-0.015l8.131-8.142C55.766,27.362,57.799,27.359,59.061,28.619
			z"/>
	</g>
</g>
</svg>
