<?xml version="1.0" encoding="UTF-8" standalone="no"?>
<!-- Generator: Adobe Illustrator 15.1.0, SVG Export Plug-In . SVG Version: 6.00 Build 0)  -->

<svg
   xmlns:dc="http://purl.org/dc/elements/1.1/"
   xmlns:cc="http://creativecommons.org/ns#"
   xmlns:rdf="http://www.w3.org/1999/02/22-rdf-syntax-ns#"
   xmlns:svg="http://www.w3.org/2000/svg"
   xmlns="http://www.w3.org/2000/svg"
   xmlns:sodipodi="http://sodipodi.sourceforge.net/DTD/sodipodi-0.dtd"
   xmlns:inkscape="http://www.inkscape.org/namespaces/inkscape"
   version="1.1"
   id="Layer_1"
   x="0px"
   y="0px"
   width="75px"
   height="75px"
   viewBox="0 0 75 75"
   enable-background="new 0 0 75 75"
   xml:space="preserve"
   inkscape:version="0.48.3.1 r9886"
   sodipodi:docname="bookreader-libraries.svg"><metadata
   id="metadata31"><rdf:RDF><cc:Work
       rdf:about=""><dc:format>image/svg+xml</dc:format><dc:type
         rdf:resource="http://purl.org/dc/dcmitype/StillImage" /></cc:Work></rdf:RDF></metadata><defs
   id="defs29" /><sodipodi:namedview
   pagecolor="#ffffff"
   bordercolor="#666666"
   borderopacity="1"
   objecttolerance="10"
   gridtolerance="10"
   guidetolerance="10"
   inkscape:pageopacity="0"
   inkscape:pageshadow="2"
   inkscape:window-width="640"
   inkscape:window-height="480"
   id="namedview27"
   showgrid="false"
   inkscape:zoom="3.1466667"
   inkscape:cx="37.5"
   inkscape:cy="37.5"
   inkscape:window-x="0"
   inkscape:window-y="0"
   inkscape:window-maximized="0"
   inkscape:current-layer="Layer_1" />


<g
   id="g7">
	<path
   fill="#4CAEE0"
   stroke="#1C4A61"
   stroke-width="3.5"
   stroke-linecap="round"
   stroke-linejoin="round"
   d="M59.65,48.258   L51.031,25.89v0.85c0,0.012-0.002,0.022-0.002,0.034c-0.002,0.253-0.033,0.501-0.076,0.748c-0.008,0.048-0.01,0.099-0.02,0.146   c-0.051,0.241-0.127,0.473-0.217,0.701c-0.018,0.045-0.027,0.093-0.045,0.137c-0.102,0.236-0.227,0.458-0.365,0.674   c-0.018,0.026-0.029,0.057-0.047,0.083c-0.146,0.216-0.316,0.415-0.498,0.604c-0.02,0.019-0.033,0.042-0.051,0.06   c-0.158,0.157-0.336,0.293-0.518,0.427c-0.057,0.042-0.105,0.091-0.164,0.13c-0.145,0.096-0.305,0.171-0.461,0.251   c-0.113,0.057-0.221,0.122-0.338,0.17c-0.027,0.011-0.049,0.028-0.076,0.039c-0.133,0.051-0.27,0.073-0.404,0.111   c-0.125,0.035-0.246,0.078-0.375,0.103c-0.201,0.039-0.402,0.051-0.602,0.061c-0.082,0.004-0.158,0.024-0.24,0.024   c-0.016,0-0.031-0.005-0.049-0.005c-0.201-0.002-0.398-0.03-0.596-0.06c-0.102-0.015-0.207-0.018-0.307-0.04   c-0.15-0.033-0.293-0.088-0.439-0.136c-0.135-0.044-0.273-0.078-0.402-0.134c-0.105-0.046-0.201-0.11-0.303-0.164   c-0.154-0.082-0.313-0.158-0.455-0.256c-0.084-0.058-0.154-0.13-0.234-0.193c-0.146-0.117-0.297-0.231-0.428-0.365   c-0.063-0.063-0.111-0.137-0.168-0.203c-0.137-0.156-0.271-0.312-0.385-0.486c-0.037-0.056-0.063-0.119-0.096-0.177   c-0.098-0.164-0.197-0.326-0.273-0.501l8.854,22.971c0.895,2.32,3.498,3.475,5.816,2.58C59.389,53.18,60.545,50.578,59.65,48.258z"
   id="path9" />
	<path
   fill="#C2C079"
   stroke="#1C4A61"
   stroke-width="3.5"
   stroke-linecap="round"
   stroke-linejoin="round"
   d="M51.031,25.89   l-0.01-9.072l-9,0.009l0.01,9.921c0,0.583,0.119,1.137,0.322,1.648c0.088,0.223,0.199,0.428,0.318,0.628   c0.033,0.058,0.059,0.121,0.096,0.177c0.113,0.175,0.25,0.331,0.385,0.486c0.057,0.066,0.105,0.141,0.168,0.203   c0.131,0.135,0.281,0.249,0.428,0.365c0.08,0.063,0.15,0.135,0.234,0.193c0.145,0.099,0.301,0.174,0.455,0.256   c0.102,0.054,0.197,0.118,0.303,0.164c0.129,0.057,0.268,0.09,0.402,0.134c0.146,0.048,0.289,0.104,0.439,0.136   c0.102,0.022,0.205,0.025,0.307,0.04c0.195,0.028,0.393,0.058,0.596,0.06c0.096,0.001,0.191-0.014,0.289-0.02   c0.203-0.011,0.406-0.023,0.602-0.061c0.125-0.024,0.25-0.067,0.375-0.103c0.162-0.046,0.326-0.086,0.48-0.15   c0.119-0.048,0.225-0.113,0.338-0.17c0.156-0.08,0.314-0.154,0.461-0.251c0.059-0.039,0.107-0.088,0.164-0.13   c0.18-0.133,0.359-0.269,0.518-0.427c0.018-0.019,0.031-0.041,0.051-0.06c0.182-0.188,0.352-0.387,0.498-0.604   c0.018-0.026,0.029-0.056,0.047-0.083c0.139-0.214,0.264-0.437,0.365-0.674c0.018-0.044,0.027-0.092,0.045-0.137   c0.088-0.227,0.166-0.458,0.217-0.701c0.012-0.048,0.012-0.098,0.02-0.146c0.043-0.244,0.074-0.492,0.076-0.748   c0-0.012,0.002-0.022,0.002-0.034V25.89z"
   id="path11" />
	<path
   fill="#C2C079"
   stroke="#1C4A61"
   stroke-width="3.5"
   stroke-linecap="round"
   stroke-linejoin="round"
   d="M42.045,15v9.921   c0,2.485-2.016,4.499-4.5,4.499c-2.486,0-4.5-2.014-4.5-4.499h-0.002V15H42.045z"
   id="path13" />
	<path
   fill="#4CAEE0"
   stroke="#1C4A61"
   stroke-width="3.5"
   stroke-linecap="round"
   stroke-linejoin="round"
   d="M33.044,24.921   c0,2.485,2.014,4.499,4.5,4.499c2.485,0,4.5-2.014,4.5-4.499v24.788c0,2.488-2.016,4.5-4.5,4.5c-2.486,0-4.5-2.012-4.5-4.5h-0.002   V24.921H33.044z"
   id="path15" />
	<path
   fill="#C2C079"
   stroke="#1C4A61"
   stroke-width="3.5"
   stroke-linecap="round"
   stroke-linejoin="round"
   d="M24.046,15v9.921   c0,2.485-2.014,4.499-4.498,4.499c-2.486,0-4.5-2.014-4.5-4.499l0,0V15H24.046z"
   id="path17" />
	<path
   fill="#4CAEE0"
   stroke="#1C4A61"
   stroke-width="3.5"
   stroke-linecap="round"
   stroke-linejoin="round"
   d="M15.048,24.921   c0,2.485,2.014,4.499,4.5,4.499c2.484,0,4.498-2.014,4.498-4.499v24.788c0,2.488-2.014,4.5-4.498,4.5c-2.486,0-4.5-2.012-4.5-4.5   l0,0V24.921L15.048,24.921z"
   id="path19" />
	<path
   fill="#C2C079"
   stroke="#1C4A61"
   stroke-width="3.5"
   stroke-linecap="round"
   stroke-linejoin="round"
   d="M33.046,15v9.921   c0,2.485-2.014,4.499-4.498,4.499c-2.488,0-4.502-2.014-4.502-4.499l0,0V15H33.046z"
   id="path21" />
	<path
   fill="#4CAEE0"
   stroke="#1C4A61"
   stroke-width="3.5"
   stroke-linecap="round"
   stroke-linejoin="round"
   d="M24.046,24.921   c0,2.485,2.014,4.499,4.502,4.499c2.484,0,4.498-2.014,4.498-4.499v24.788c0,2.488-2.014,4.5-4.498,4.5   c-2.488,0-4.502-2.012-4.502-4.5l0,0V24.921L24.046,24.921z"
   id="path23" />
	<polygon
   fill="#4CAEE0"
   stroke="#1C4A61"
   stroke-width="3.5"
   stroke-linecap="round"
   stroke-linejoin="round"
   points="   59.865,39.84 59.891,48.938 51.047,25.917 51.021,16.818  "
   id="polygon25" />
</g>
</svg>