<?xml version="1.0" encoding="utf-8"?>
<!-- Generator: Adobe Illustrator 15.1.0, SVG Export Plug-In . SVG Version: 6.00 Build 0)  -->
<!DOCTYPE svg PUBLIC "-//W3C//DTD SVG 1.1//EN" "http://www.w3.org/Graphics/SVG/1.1/DTD/svg11.dtd">
<svg version="1.1" id="Layer_2" xmlns="http://www.w3.org/2000/svg" xmlns:xlink="http://www.w3.org/1999/xlink" x="0px" y="0px"
	 width="75px" height="37.5px" viewBox="0 0 75 37.5" enable-background="new 0 0 75 37.5" xml:space="preserve">
<rect fill="#303030" width="75" height="37.5"/>
<g>
	<g id="go-right_3_">
		<g>
			<path fill="#C1BF79" d="M47.804,29.583c-0.625,0.623-1.446,0.938-2.27,0.938c-0.822,0-1.646-0.315-2.271-0.938l-5.84-5.834
				l-5.656,5.803c-0.631,0.645-1.465,0.967-2.301,0.967c-0.807,0-1.619-0.305-2.246-0.914c-1.266-1.238-1.295-3.271-0.055-4.546
				l7.928-8.126c0,0,0.002,0,0.004,0c0.01-0.012,0.015-0.021,0.021-0.027c0.116-0.115,0.245-0.209,0.371-0.303
				c0.039-0.027,0.071-0.064,0.111-0.093c0.113-0.075,0.24-0.134,0.359-0.194c0.068-0.035,0.131-0.078,0.201-0.107
				c0.1-0.039,0.202-0.063,0.305-0.092c0.1-0.033,0.191-0.068,0.293-0.091c0.082-0.018,0.168-0.018,0.25-0.028
				c0.123-0.015,0.244-0.032,0.367-0.035c0.07,0,0.146,0.014,0.219,0.021c0.133,0.007,0.266,0.011,0.395,0.036
				c0.075,0.014,0.145,0.043,0.223,0.064c0.123,0.035,0.25,0.061,0.373,0.111c0.082,0.031,0.16,0.081,0.244,0.12
				c0.104,0.056,0.215,0.104,0.314,0.165c0.085,0.059,0.158,0.13,0.238,0.194c0.086,0.063,0.177,0.122,0.254,0.2
				c0.007,0.004,0.011,0.012,0.014,0.015c0.008,0.004,0.012,0.008,0.016,0.011l8.142,8.131
				C49.061,26.289,49.063,28.322,47.804,29.583z"/>
		</g>
	</g>
</g>
</svg>
