<?xml version="1.0" encoding="utf-8"?>
<!-- Generator: Adobe Illustrator 15.1.0, SVG Export Plug-In . SVG Version: 6.00 Build 0)  -->
<!DOCTYPE svg PUBLIC "-//W3C//DTD SVG 1.1//EN" "http://www.w3.org/Graphics/SVG/1.1/DTD/svg11.dtd">
<svg version="1.1" id="Layer_2" xmlns="http://www.w3.org/2000/svg" xmlns:xlink="http://www.w3.org/1999/xlink" x="0px" y="0px"
	 width="75px" height="75px" viewBox="0 0 75 75" enable-background="new 0 0 75 75" xml:space="preserve">
<rect width="75" height="75"/>
<g id="go-left_4_">
	<g>
		<path fill="#C1BF79" d="M20.492,28.616l8.131,8.142c0.002,0.004,0.006,0.008,0.01,0.015c0.004,0.004,0.012,0.008,0.015,0.013
			c0.079,0.078,0.137,0.168,0.2,0.254c0.064,0.08,0.137,0.155,0.195,0.239c0.061,0.101,0.109,0.21,0.164,0.315
			c0.039,0.084,0.09,0.162,0.121,0.244c0.051,0.123,0.076,0.25,0.111,0.373c0.021,0.076,0.05,0.148,0.064,0.224
			c0.024,0.129,0.028,0.262,0.035,0.396c0.008,0.071,0.021,0.147,0.021,0.219c-0.004,0.121-0.021,0.244-0.036,0.365
			c-0.011,0.082-0.011,0.168-0.028,0.252c-0.021,0.1-0.058,0.192-0.09,0.291c-0.029,0.104-0.054,0.207-0.093,0.307
			c-0.029,0.068-0.072,0.132-0.106,0.199c-0.062,0.121-0.119,0.246-0.195,0.36c-0.028,0.04-0.064,0.072-0.092,0.111
			c-0.095,0.126-0.188,0.255-0.303,0.37c-0.007,0.008-0.017,0.013-0.027,0.023c0,0,0,0,0,0.002l-8.127,7.93
			c-1.273,1.238-3.307,1.209-4.545-0.057c-0.609-0.625-0.914-1.438-0.914-2.246c0-0.836,0.322-1.67,0.967-2.3L21.772,39l-5.833-5.84
			C15.316,32.534,15,31.711,15,30.889c0-0.823,0.316-1.645,0.939-2.27C17.201,27.359,19.234,27.362,20.492,28.616z"/>
	</g>
</g>
</svg>
