<?xml version="1.0" encoding="utf-8"?>
<!-- Generator: Adobe Illustrator 15.1.0, SVG Export Plug-In . SVG Version: 6.00 Build 0)  -->
<!DOCTYPE svg PUBLIC "-//W3C//DTD SVG 1.1//EN" "http://www.w3.org/Graphics/SVG/1.1/DTD/svg11.dtd">
<svg version="1.1" id="Layer_1" xmlns="http://www.w3.org/2000/svg" xmlns:xlink="http://www.w3.org/1999/xlink" x="0px" y="0px"
	 width="75px" height="75px" viewBox="0 0 75 75" enable-background="new 0 0 75 75" xml:space="preserve">
<rect width="75" height="75"/>
<path fill="#943A42" d="M37.5,65.751l-5,5h10L37.5,65.751z"/>
<g>
	<g>
		<path fill="#C2C079" stroke="#1C4A61" stroke-width="3.5" stroke-linecap="round" stroke-linejoin="round" d="M41.66,49.412
			c-2.297,0-4.16,1.863-4.16,4.16c0-2.297-1.863-4.16-4.16-4.16H19.161H15v6.428h4.161H33.34c0,2.297,1.862,4.158,4.16,4.16h0.001
			c2.297,0,4.161-1.863,4.161-4.16H55.84H60v-6.428h-4.16H41.66z"/>
		<path fill="#C2C079" stroke="#1C4A61" stroke-width="3.5" stroke-linecap="round" stroke-linejoin="round" d="M37.5,25.292v28.28
			c0-2.297,1.863-4.16,4.16-4.16h14.18H60V21.131H41.66C39.363,21.131,37.5,22.995,37.5,25.292z"/>
		<path fill="#C2C079" stroke="#1C4A61" stroke-width="3.5" stroke-linecap="round" stroke-linejoin="round" d="M33.34,49.412
			c2.297,0,4.16,1.863,4.16,4.16v-28.28c0-2.298-1.863-4.161-4.16-4.161H15v28.281h4.161H33.34z"/>
	</g>
	<g>
		<path fill="#943A42" d="M49.594,18.587c-0.904-1.062-2.313-1.725-3.613-2.111c-3.945-1.174-8.308-1.615-12.42-1.438
			c-1.431,0.063-2.114,0.312-2.674,0.685c-2.17,1.446-3.207,4.482-4.032,6.813c-0.803,2.265-1.533,4.563-2.049,6.913
			c-0.414,1.878-0.986,4.362-0.512,6.267c0.604,2.414,5.505,3.125,7.961,3.42c2.558,0.308,5.234,0.429,7.812,0.422
			c1.572-0.004,4.254-0.08,5.248-0.702c1.066-0.667,1.455-2.354,1.988-3.792c0.406-1.089,0.914-2.836,1.09-3.575
			c0.539-2.281,0.814-3.413,1.213-5.721C49.979,23.605,50.943,20.169,49.594,18.587z"/>
		<path fill="#FFFFFF" d="M43.51,27.601c-0.092,0.777-0.777,2.084-0.777,2.084s-1.264-1.149-1.305-1.96
			c-0.043-0.829,0.049-1.413,0.109-1.688c0.131-0.095,0.279-0.175,0.449-0.231c0.381-0.127,0.666-0.141,1.068-0.074
			C43.129,25.91,43.578,27.03,43.51,27.601z"/>
		<path fill="#FFFFFF" d="M43.018,24.99c-0.422-0.071-0.711-0.062-1.102,0.068c-0.223,0.074-0.41,0.189-0.566,0.329
			c-0.029-0.072-0.057-0.154-0.088-0.242c0.16-0.146,0.354-0.266,0.586-0.344c0.408-0.137,0.705-0.141,1.158-0.058
			C43.01,24.833,43.014,24.917,43.018,24.99z"/>
		<path fill="#FFFFFF" d="M42.98,24.087c-0.061-1.617-1.646-6.529-1.646-6.529l-0.279-0.063c0,0-0.117,5.243-0.031,6.405
			c0.023,0.327,0.072,0.614,0.131,0.862c0.16-0.153,0.361-0.277,0.6-0.357c0.432-0.144,0.738-0.143,1.238-0.043
			C42.988,24.276,42.986,24.185,42.98,24.087z M42.104,23.776c0,0-0.117-0.744-0.234-1.354c-0.115-0.605-0.186-0.815-0.256-1.259
			c-0.07-0.442-0.117-1.026-0.117-1.026c0.188,0.443,0.98,2.565,1.004,3.592C42.313,23.729,42.104,23.776,42.104,23.776z"/>
		<path fill="#FFFFFF" d="M37.917,23.781c-0.323-0.45-0.958-0.925-1.905-1.425c-1.181-0.623-2.203-0.916-3.066-0.879
			c-0.864,0.037-1.445,0.338-1.743,0.902c-0.139,0.262-0.174,0.535-0.106,0.818c0.066,0.284,0.256,0.508,0.566,0.672
			c0.24,0.127,0.496,0.164,0.768,0.113c0.271-0.051,0.483-0.222,0.636-0.512c0.108-0.205,0.154-0.408,0.139-0.611
			c-0.015-0.202,0.012-0.367,0.078-0.494c0.231-0.438,0.92-0.355,2.064,0.248c0.636,0.336,0.954,0.681,0.953,1.032
			c-0.001,0.353-0.233,0.97-0.699,1.854l-0.57,1.081c-3.639-1.701-5.933-1.651-6.883,0.15c-0.306,0.58-0.346,1.186-0.117,1.815
			c0.227,0.63,0.708,1.14,1.443,1.528c1.11,0.584,2.377,0.53,3.801-0.164c-0.406,1.231-0.117,2.105,0.864,2.624
			c1.019,0.536,1.891,0.338,2.619-0.598l-0.254-0.134c-0.423,0.219-0.763,0.262-1.018,0.128c-0.169-0.089-0.257-0.226-0.264-0.41
			s0.141-0.563,0.443-1.136l2.058-3.901c0.312-0.593,0.503-1.08,0.574-1.46C38.365,24.646,38.238,24.231,37.917,23.781z
			 M34.168,28.214c-0.261,0.495-0.522,0.854-0.785,1.076c-0.262,0.225-0.635,0.387-1.118,0.488c-0.482,0.102-0.933,0.043-1.35-0.176
			c-0.325-0.172-0.545-0.455-0.657-0.849c-0.113-0.394-0.045-0.828,0.205-1.302c0.343-0.649,0.813-1.036,1.412-1.158
			c0.597-0.124,1.563,0.135,2.896,0.775L34.168,28.214z"/>
		<path fill="#FFFFFF" d="M42.877,35.813c-0.123,0.313-0.414,0.504-0.875,0.572c-0.398,0.058-0.768,0.02-1.107-0.114
			c-0.271-0.106-0.492-0.248-0.66-0.425c-0.219-0.229-0.283-0.463-0.189-0.699c0.115-0.296,0.41-0.457,0.887-0.484
			c0.381-0.024,0.74,0.029,1.072,0.159c0.238,0.094,0.434,0.212,0.588,0.355l0.906-2.308l-3.619,0.155l-1.252,3.188
			c-0.123,0.309-0.41,0.503-0.866,0.582c-0.4,0.069-0.768,0.038-1.1-0.093c-0.269-0.104-0.487-0.247-0.655-0.424
			c-0.221-0.226-0.284-0.458-0.188-0.699c0.114-0.291,0.407-0.454,0.881-0.486c0.382-0.024,0.74,0.029,1.073,0.16
			c0.227,0.089,0.416,0.203,0.568,0.342l1.615-4.111l4.697-0.188L42.877,35.813z"/>
		<path fill="#FFFFFF" d="M42.484,27.632c0.063,0.528,0.248,1.15,0.248,1.15s0.369-0.929,0.342-1.275
			c-0.037-0.513-0.412-0.909-0.412-0.909S42.422,27.103,42.484,27.632z"/>
	</g>
</g>
</svg>
