<?xml version="1.0" encoding="utf-8"?>
<!-- Generator: Adobe Illustrator 15.1.0, SVG Export Plug-In . SVG Version: 6.00 Build 0)  -->
<!DOCTYPE svg PUBLIC "-//W3C//DTD SVG 1.1//EN" "http://www.w3.org/Graphics/SVG/1.1/DTD/svg11.dtd">
<svg version="1.1" id="Layer_1" xmlns="http://www.w3.org/2000/svg" xmlns:xlink="http://www.w3.org/1999/xlink" x="0px" y="0px"
	 width="75px" height="75px" viewBox="0 0 75 75" enable-background="new 0 0 75 75" xml:space="preserve">
<g id="Layer_2">
	<rect width="75" height="75"/>
</g>
<g id="Layer_1_1_">
	<g id="document-save">
		<g>
			<g>
				<g>
					<path fill="#C1BF79" stroke="#1C4B61" stroke-width="3.5" stroke-linecap="round" stroke-linejoin="round" d="M24.879,58.917
						h24.52c2.226,0,3.439-1.447,3.439-3.44V28.196c0-1.73-1.732-3.441-3.439-3.441H45.01"/>
				</g>
			</g>
			<g>
				<g>
					<path fill="#C1BF79" stroke="#1C4B61" stroke-width="3.5" stroke-linecap="round" stroke-linejoin="round" d="M45.01,48.507
						c0,1.836-1.346,3.201-3.441,4.048L24.88,58.917V24.754l16.688-8.599c2.229-0.395,3.441,0.84,3.441,2.834V48.507L45.01,48.507z"
						/>
				</g>
			</g>
			<path fill="#943A43" stroke="#1C4B61" stroke-width="3.5" stroke-linecap="round" stroke-linejoin="round" d="M27.566,52.521
				c0,0-1.352-0.543-2.701-0.543c-1.352,0-2.703,0.543-2.703,0.543"/>
			<path fill="#943A43" stroke="#1C4B61" stroke-width="3.5" stroke-linecap="round" stroke-linejoin="round" d="M27.566,41.921
				c0,0-1.238-0.543-2.814-0.543c-1.578,0-2.59,0.543-2.59,0.543"/>
			<path fill="#943A43" stroke="#1C4B61" stroke-width="3.5" stroke-linecap="round" stroke-linejoin="round" d="M27.566,31.592
				c0,0-1.125-0.544-2.927-0.544c-1.802,0-2.478,0.544-2.478,0.544"/>
			
				<line fill="none" stroke="#1C4B61" stroke-width="3.5" stroke-linecap="round" stroke-linejoin="round" x1="31.352" y1="56.448" x2="31.352" y2="21.419"/>
		</g>
	</g>
</g>
</svg>
