<?xml version="1.0" encoding="UTF-8" standalone="no"?>
<!-- Generator: Adobe Illustrator 15.1.0, SVG Export Plug-In . SVG Version: 6.00 Build 0)  -->

<svg
   xmlns:dc="http://purl.org/dc/elements/1.1/"
   xmlns:cc="http://creativecommons.org/ns#"
   xmlns:rdf="http://www.w3.org/1999/02/22-rdf-syntax-ns#"
   xmlns:svg="http://www.w3.org/2000/svg"
   xmlns="http://www.w3.org/2000/svg"
   xmlns:sodipodi="http://sodipodi.sourceforge.net/DTD/sodipodi-0.dtd"
   xmlns:inkscape="http://www.inkscape.org/namespaces/inkscape"
   version="1.1"
   id="Layer_1"
   x="0px"
   y="0px"
   width="75px"
   height="75px"
   viewBox="0 0 75 75"
   enable-background="new 0 0 75 75"
   xml:space="preserve"
   inkscape:version="0.48.3.1 r9886"
   sodipodi:docname="bookreader-mybooks.svg"><metadata
   id="metadata26"><rdf:RDF><cc:Work
       rdf:about=""><dc:format>image/svg+xml</dc:format><dc:type
         rdf:resource="http://purl.org/dc/dcmitype/StillImage" /></cc:Work></rdf:RDF></metadata><defs
   id="defs24" /><sodipodi:namedview
   pagecolor="#ffffff"
   bordercolor="#666666"
   borderopacity="1"
   objecttolerance="10"
   gridtolerance="10"
   guidetolerance="10"
   inkscape:pageopacity="0"
   inkscape:pageshadow="2"
   inkscape:window-width="640"
   inkscape:window-height="480"
   id="namedview22"
   showgrid="false"
   inkscape:zoom="3.1466667"
   inkscape:cx="37.5"
   inkscape:cy="37.5"
   inkscape:window-x="0"
   inkscape:window-y="0"
   inkscape:window-maximized="0"
   inkscape:current-layer="Layer_1" />


<g
   id="g7">
	<g
   id="libro_10_">
		<path
   fill="#4BADDE"
   stroke="#1C4B61"
   stroke-width="3.5"
   stroke-linecap="round"
   stroke-linejoin="round"
   d="M24.906,15    c-1.698,0-3.074,1.377-3.074,3.073v35.769c0-1.697,1.376-3.072,3.074-3.072h25.19h3.074V15H24.906z"
   id="path10" />
		<path
   fill="#C1BF79"
   stroke="#1C4B61"
   stroke-width="3.5"
   stroke-linecap="round"
   stroke-linejoin="round"
   d="M50.096,53.842    c0-1.697,1.377-3.072,3.074-3.072h-3.074h-25.19c-1.698,0-3.074,1.375-3.074,3.072c0,1.699,1.376,3.074,3.074,3.074H53.17    C51.473,56.916,50.096,55.541,50.096,53.842z"
   id="path12" />
		
			<line
   fill="#FFFFFF"
   stroke="#1C4B61"
   stroke-width="3.5"
   stroke-linecap="round"
   stroke-linejoin="round"
   x1="26.972"
   y1="15"
   x2="26.972"
   y2="50.77"
   id="line14" />
	</g>
	<circle
   fill="#1C4B61"
   cx="36.588"
   cy="26.811"
   r="1.75"
   id="circle16" />
	<circle
   fill="#1C4B61"
   cx="43.916"
   cy="26.811"
   r="1.717"
   id="circle18" />
	<path
   fill="none"
   stroke="#1C4B61"
   stroke-width="3.5"
   stroke-linecap="round"
   stroke-linejoin="round"
   d="M33.104,33.94   c1.15,2.819,3.915,4.808,7.148,4.808c3.232,0,5.998-1.989,7.148-4.808"
   id="path20" />
</g>
</svg>