<?xml version="1.0" encoding="utf-8"?>
<!-- Generator: Adobe Illustrator 15.1.0, SVG Export Plug-In . SVG Version: 6.00 Build 0)  -->
<!DOCTYPE svg PUBLIC "-//W3C//DTD SVG 1.1//EN" "http://www.w3.org/Graphics/SVG/1.1/DTD/svg11.dtd">
<svg version="1.1" id="Layer_2" xmlns="http://www.w3.org/2000/svg" xmlns:xlink="http://www.w3.org/1999/xlink" x="0px" y="0px"
	 width="75px" height="75px" viewBox="0 0 75 75" enable-background="new 0 0 75 75" xml:space="preserve">
<rect width="75" height="75"/>
<g>
	<g>
		<path fill="#C1BF79" stroke="#1C4B61" stroke-width="3.5" stroke-linecap="round" stroke-linejoin="round" d="M41.66,49.055
			c-2.297,0-4.16,1.863-4.16,4.16c0-2.297-1.863-4.16-4.16-4.16H19.161H15v6.428h4.161H33.34c0,2.297,1.862,4.158,4.16,4.16h0.001
			c2.297,0,4.161-1.863,4.161-4.16h14.177H60v-6.428h-4.161H41.66z"/>
		<path fill="#C1BF79" stroke="#1C4B61" stroke-width="3.5" stroke-linecap="round" stroke-linejoin="round" d="M37.5,23.518v29.697
			c0-2.297,1.863-4.16,4.16-4.16h14.179H60V19.356H41.66C39.363,19.356,37.5,21.22,37.5,23.518z"/>
		<path fill="#C1BF79" stroke="#1C4B61" stroke-width="3.5" stroke-linecap="round" stroke-linejoin="round" d="M33.34,49.055
			c2.297,0,4.16,1.863,4.16,4.16V23.518c0-2.298-1.863-4.161-4.16-4.161H15v29.698h4.161H33.34z"/>
	</g>
	<g id="marca_1_">
		<polygon fill="#943A43" stroke="#1C4B61" stroke-width="3.5" stroke-linecap="round" stroke-linejoin="round" points="
			54.811,15.357 42.691,15.357 42.691,40.072 48.752,34.01 48.752,34.01 54.811,40.072 		"/>
	</g>
</g>
</svg>
