<?xml version="1.0" encoding="utf-8"?>
<!-- Generator: Adobe Illustrator 15.1.0, SVG Export Plug-In . SVG Version: 6.00 Build 0)  -->
<!DOCTYPE svg PUBLIC "-//W3C//DTD SVG 1.1//EN" "http://www.w3.org/Graphics/SVG/1.1/DTD/svg11.dtd">
<svg version="1.1" id="Layer_2" xmlns="http://www.w3.org/2000/svg" xmlns:xlink="http://www.w3.org/1999/xlink" x="0px" y="0px"
	 width="75px" height="75px" viewBox="0 0 75 75" enable-background="new 0 0 75 75" xml:space="preserve">
<rect fill="#943A43" width="75" height="75"/>
<path display="none" d="M72.5,70c0,1.381-1.12,2.5-2.5,2.5H5c-1.381,0-2.5-1.119-2.5-2.5V5c0-1.381,1.119-2.5,2.5-2.5h65
	c1.38,0,2.5,1.119,2.5,2.5V70z"/>
<g id="edit-delete">
	<path fill="#FFFFFF" d="M53.411,21.589c-8.789-8.79-23.035-8.786-31.818-0.002c-8.791,8.791-8.791,23.034-0.002,31.824
		c8.791,8.789,23.031,8.788,31.822-0.003C62.195,44.624,62.201,30.378,53.411,21.589z M26.136,40.568
		c-0.885,0-1.688-0.358-2.271-0.938c-0.582-0.584-0.942-1.389-0.942-2.277c0-1.773,1.439-3.214,3.217-3.212h22.717
		c1.774-0.005,3.211,1.438,3.213,3.214c0.002,1.775-1.441,3.213-3.215,3.215L26.136,40.568z"/>
</g>
</svg>
