<?xml version="1.0" encoding="utf-8"?>
<!-- Generator: Adobe Illustrator 15.1.0, SVG Export Plug-In . SVG Version: 6.00 Build 0)  -->
<!DOCTYPE svg PUBLIC "-//W3C//DTD SVG 1.1//EN" "http://www.w3.org/Graphics/SVG/1.1/DTD/svg11.dtd">
<svg version="1.1" xmlns="http://www.w3.org/2000/svg" xmlns:xlink="http://www.w3.org/1999/xlink" x="0px" y="0px" width="150px"
	 height="195px" viewBox="0 0 150 195" enable-background="new 0 0 150 195" xml:space="preserve">
<g id="Layer_2">
	<g>
		<path fill="#C1BF79" d="M150,172.5c0,12.426-10.073,22.5-22.5,22.5h-105C10.073,195,0,184.926,0,172.5v-150
			C0,10.074,10.073,0,22.5,0h105C139.927,0,150,10.074,150,22.5V172.5z"/>
		<g>
			<path fill="#231F20" d="M53.124,130.403h1.874v12.274h6.745v1.576h-8.619V130.403z"/>
			<path fill="#231F20" d="M72.188,138.633v0.834H64.34c0.074,1.176,0.428,2.07,1.063,2.687c0.634,0.615,1.517,0.923,2.648,0.923
				c0.655,0,1.291-0.08,1.906-0.241c0.616-0.161,1.226-0.401,1.833-0.724v1.614c-0.612,0.26-1.24,0.458-1.883,0.594
				c-0.644,0.136-1.296,0.204-1.958,0.204c-1.658,0-2.97-0.482-3.938-1.447c-0.968-0.965-1.452-2.27-1.452-3.915
				c0-1.7,0.459-3.051,1.378-4.05c0.918-0.998,2.157-1.498,3.715-1.498c1.397,0,2.503,0.45,3.317,1.35
				C71.782,135.863,72.188,137.086,72.188,138.633z M70.481,138.131c-0.013-0.934-0.273-1.679-0.784-2.235
				c-0.51-0.557-1.186-0.835-2.027-0.835c-0.953,0-1.715,0.27-2.287,0.807c-0.572,0.539-0.902,1.297-0.988,2.273L70.481,138.131z"/>
			<path fill="#231F20" d="M83.878,138.633v0.834h-7.849c0.074,1.176,0.428,2.07,1.063,2.687c0.634,0.615,1.517,0.923,2.648,0.923
				c0.655,0,1.291-0.08,1.906-0.241s1.227-0.401,1.832-0.724v1.614c-0.611,0.26-1.24,0.458-1.883,0.594
				c-0.644,0.136-1.296,0.204-1.957,0.204c-1.658,0-2.971-0.482-3.938-1.447c-0.968-0.965-1.452-2.27-1.452-3.915
				c0-1.7,0.459-3.051,1.378-4.05c0.918-0.998,2.157-1.498,3.716-1.498c1.396,0,2.503,0.45,3.316,1.35
				C83.471,135.863,83.878,137.086,83.878,138.633z M82.171,138.131c-0.013-0.934-0.273-1.679-0.784-2.235
				c-0.51-0.557-1.186-0.835-2.027-0.835c-0.952,0-1.715,0.27-2.286,0.807c-0.572,0.539-0.901,1.297-0.988,2.273L82.171,138.131z"/>
			<path fill="#231F20" d="M92.701,135.459c-0.192-0.111-0.4-0.193-0.627-0.245c-0.226-0.053-0.475-0.079-0.746-0.079
				c-0.965,0-1.706,0.314-2.223,0.941c-0.516,0.628-0.774,1.529-0.774,2.705v5.473h-1.716v-10.391h1.716v1.615
				c0.358-0.631,0.825-1.1,1.401-1.406c0.574-0.306,1.273-0.459,2.096-0.459c0.117,0,0.248,0.008,0.391,0.023
				c0.142,0.016,0.299,0.039,0.473,0.069L92.701,135.459z"/>
			<path fill="#231F20" d="M41.476,161.432v0.836h-7.849c0.074,1.175,0.428,2.07,1.062,2.686c0.634,0.615,1.517,0.923,2.649,0.923
				c0.655,0,1.291-0.08,1.907-0.241c0.615-0.16,1.226-0.402,1.832-0.724v1.614c-0.612,0.26-1.24,0.458-1.883,0.594
				c-0.644,0.136-1.296,0.204-1.958,0.204c-1.658,0-2.97-0.482-3.938-1.447c-0.968-0.965-1.452-2.27-1.452-3.915
				c0-1.701,0.459-3.051,1.377-4.05c0.919-0.999,2.157-1.498,3.716-1.498c1.397,0,2.503,0.45,3.316,1.35
				C41.069,158.663,41.476,159.887,41.476,161.432z M39.769,160.932c-0.013-0.934-0.274-1.68-0.784-2.236
				c-0.511-0.557-1.187-0.835-2.027-0.835c-0.953,0-1.715,0.269-2.287,0.808c-0.572,0.537-0.901,1.295-0.988,2.272L39.769,160.932z"
				/>
			<path fill="#231F20" d="M50.902,156.97v1.614c-0.482-0.247-0.983-0.433-1.503-0.557c-0.52-0.123-1.058-0.186-1.614-0.186
				c-0.848,0-1.483,0.13-1.907,0.39c-0.423,0.26-0.635,0.649-0.635,1.169c0,0.396,0.151,0.707,0.455,0.933
				c0.303,0.226,0.912,0.44,1.828,0.645l0.584,0.13c1.212,0.26,2.073,0.626,2.584,1.1c0.51,0.473,0.765,1.133,0.765,1.98
				c0,0.965-0.382,1.729-1.146,2.291c-0.764,0.563-1.813,0.845-3.149,0.845c-0.557,0-1.137-0.054-1.739-0.162
				c-0.604-0.108-1.239-0.271-1.907-0.487v-1.763c0.631,0.328,1.252,0.573,1.865,0.737s1.218,0.246,1.818,0.246
				c0.804,0,1.422-0.138,1.855-0.413c0.433-0.274,0.649-0.663,0.649-1.164c0-0.464-0.156-0.819-0.469-1.067
				c-0.312-0.246-0.997-0.484-2.055-0.714l-0.594-0.14c-1.058-0.223-1.822-0.564-2.292-1.024c-0.47-0.461-0.705-1.093-0.705-1.897
				c0-0.977,0.346-1.731,1.039-2.264c0.692-0.531,1.676-0.798,2.95-0.798c0.631,0,1.225,0.046,1.781,0.14
				C49.918,156.645,50.432,156.784,50.902,156.97z"/>
			<path fill="#231F20" d="M55.865,153.713v2.951h3.516v1.326h-3.516v5.641c0,0.848,0.116,1.392,0.348,1.633
				c0.232,0.241,0.704,0.361,1.415,0.361h1.753v1.43h-1.753c-1.317,0-2.227-0.246-2.728-0.738c-0.501-0.491-0.751-1.387-0.751-2.686
				v-5.641h-1.252v-1.326h1.252v-2.951H55.865z"/>
			<path fill="#231F20" d="M70.514,161.432v0.836h-7.849c0.074,1.175,0.428,2.07,1.062,2.686c0.634,0.615,1.517,0.923,2.649,0.923
				c0.655,0,1.291-0.08,1.907-0.241c0.615-0.16,1.226-0.402,1.832-0.724v1.614c-0.612,0.26-1.24,0.458-1.883,0.594
				c-0.644,0.136-1.296,0.204-1.958,0.204c-1.658,0-2.97-0.482-3.938-1.447c-0.968-0.965-1.452-2.27-1.452-3.915
				c0-1.701,0.459-3.051,1.377-4.05c0.919-0.999,2.157-1.498,3.716-1.498c1.397,0,2.503,0.45,3.316,1.35
				C70.107,158.663,70.514,159.887,70.514,161.432z M68.807,160.932c-0.013-0.934-0.274-1.68-0.784-2.236
				c-0.511-0.557-1.187-0.835-2.027-0.835c-0.953,0-1.715,0.269-2.287,0.808c-0.572,0.537-0.901,1.295-0.988,2.272L68.807,160.932z"
				/>
			<path fill="#231F20" d="M79.355,152.619h1.707v14.436h-1.707V152.619z"/>
			<path fill="#231F20" d="M84.635,152.619h1.707v2.161h-1.707V152.619z M84.635,156.664h1.707v10.391h-1.707V156.664z"/>
			<path fill="#231F20" d="M91.564,158.24c0.358-0.617,0.812-1.077,1.359-1.377c0.547-0.301,1.201-0.45,1.962-0.45
				c1.262,0,2.287,0.501,3.075,1.503c0.789,1.002,1.184,2.319,1.184,3.952s-0.395,2.95-1.184,3.952
				c-0.788,1.002-1.813,1.503-3.075,1.503c-0.761,0-1.415-0.149-1.962-0.45c-0.548-0.3-1.001-0.759-1.359-1.377v1.559h-1.717
				v-14.436h1.717V158.24z M97.372,161.868c0-1.255-0.259-2.24-0.774-2.955c-0.517-0.714-1.227-1.071-2.129-1.071
				c-0.904,0-1.613,0.357-2.13,1.071c-0.517,0.715-0.774,1.7-0.774,2.955c0,1.256,0.258,2.24,0.774,2.955
				c0.517,0.714,1.226,1.071,2.13,1.071c0.902,0,1.612-0.357,2.129-1.071C97.113,164.108,97.372,163.124,97.372,161.868z"/>
			<path fill="#231F20" d="M107.994,158.26c-0.191-0.111-0.4-0.193-0.626-0.246s-0.475-0.079-0.747-0.079
				c-0.965,0-1.705,0.313-2.222,0.941s-0.774,1.53-0.774,2.704v5.475h-1.717v-10.391h1.717v1.613c0.358-0.631,0.826-1.099,1.4-1.405
				c0.576-0.306,1.274-0.459,2.098-0.459c0.117,0,0.246,0.008,0.389,0.023c0.143,0.015,0.301,0.038,0.474,0.069L107.994,158.26z"/>
			<path fill="#231F20" d="M113.395,156.413c1.484,0,2.649,0.482,3.497,1.447c0.847,0.965,1.271,2.301,1.271,4.008
				c0,1.701-0.424,3.035-1.271,4.003c-0.848,0.969-2.013,1.452-3.497,1.452c-1.491,0-2.658-0.483-3.503-1.452
				c-0.844-0.968-1.267-2.302-1.267-4.003c0-1.707,0.423-3.043,1.267-4.008C110.736,156.896,111.903,156.413,113.395,156.413z
				 M113.395,157.86c-0.916,0-1.64,0.357-2.172,1.071c-0.531,0.715-0.797,1.693-0.797,2.937s0.264,2.222,0.793,2.937
				c0.528,0.714,1.254,1.071,2.176,1.071c0.908,0,1.629-0.358,2.161-1.076s0.798-1.694,0.798-2.932c0-1.23-0.266-2.206-0.798-2.927
				S114.303,157.86,113.395,157.86z"/>
		</g>
		<g>
			<path fill="#EAECD2" stroke="#1C4B61" stroke-width="3.5" stroke-linecap="round" stroke-linejoin="round" d="M83.537,90.059
				c-4.713,0-8.537,3.824-8.537,8.539c0-4.715-3.824-8.539-8.537-8.539H37.367h-8.539v13.19h8.539h29.096
				c0,4.716,3.824,8.535,8.537,8.539h0.004c4.713,0,8.537-3.823,8.537-8.539h29.094h8.537v-13.19h-8.537H83.537z"/>
			<path fill="#EAECD2" stroke="#1C4B61" stroke-width="3.5" stroke-linecap="round" stroke-linejoin="round" d="M75,37.657v60.941
				c0-4.715,3.824-8.539,8.537-8.539h29.098h8.537V29.118H83.537C78.824,29.118,75,32.941,75,37.657z"/>
			<path fill="#EAECD2" stroke="#1C4B61" stroke-width="3.5" stroke-linecap="round" stroke-linejoin="round" d="M66.463,90.059
				c4.713,0,8.537,3.824,8.537,8.539V37.657c0-4.715-3.824-8.539-8.537-8.539H28.828v60.941h8.539H66.463z"/>
		</g>
	</g>
</g>
<g id="Layer_3">
</g>
</svg>
