<?xml version="1.0" encoding="UTF-8" standalone="no"?>
<!-- Generator: Adobe Illustrator 15.1.0, SVG Export Plug-In  -->

<svg
   xmlns:dc="http://purl.org/dc/elements/1.1/"
   xmlns:cc="http://creativecommons.org/ns#"
   xmlns:rdf="http://www.w3.org/1999/02/22-rdf-syntax-ns#"
   xmlns:svg="http://www.w3.org/2000/svg"
   xmlns="http://www.w3.org/2000/svg"
   xmlns:sodipodi="http://sodipodi.sourceforge.net/DTD/sodipodi-0.dtd"
   xmlns:inkscape="http://www.inkscape.org/namespaces/inkscape"
   version="1.1"
   x="0px"
   y="0px"
   width="75"
   height="75"
   viewBox="0 0 75 75"
   enable-background="new 0 0 46 75"
   xml:space="preserve"
   id="svg4951"
   inkscape:version="0.48.4 r9939"
   sodipodi:docname="bookreader-gotopage.svg"><metadata
     id="metadata4967"><rdf:RDF><cc:Work
         rdf:about=""><dc:format>image/svg+xml</dc:format><dc:type
           rdf:resource="http://purl.org/dc/dcmitype/StillImage" /></cc:Work></rdf:RDF></metadata><sodipodi:namedview
     pagecolor="#ffffff"
     bordercolor="#666666"
     borderopacity="1"
     objecttolerance="10"
     gridtolerance="10"
     guidetolerance="10"
     inkscape:pageopacity="0"
     inkscape:pageshadow="2"
     inkscape:window-width="1366"
     inkscape:window-height="713"
     id="namedview4965"
     showgrid="false"
     inkscape:zoom="5.0251722"
     inkscape:cx="-4.0762"
     inkscape:cy="48.486762"
     inkscape:window-x="-4"
     inkscape:window-y="-3"
     inkscape:window-maximized="1"
     inkscape:current-layer="svg4951"
     showborder="false" /><defs
     id="defs4953" /><rect
     width="75"
     height="75"
     id="rect4955"
     x="-1.4071294"
     y="-0.28142589" /><path
     d="m 39.739069,47.053274 c -2.297071,0 -4.159918,1.873899 -4.159918,4.184318 0,-2.310419 -1.864047,-4.184318 -4.159919,-4.184318 H 17.24456 13.084641 v 6.460973 h 4.159919 14.175871 c 0,2.310419 1.862848,4.1807 4.159919,4.183112 h 0.0012 c 2.297073,0 4.159919,-1.872693 4.159919,-4.183112 H 53.91614 58.076059 V 47.053274 H 53.91614 39.739069 z"
     id="path4957"
     inkscape:connector-curvature="0"
     style="fill:#c1bf79;stroke:#1c4b61;stroke-width:3.50858164;stroke-linecap:round;stroke-linejoin:round" /><path
     d="m 35.579151,21.387847 v 29.849745 c 0,-2.310419 1.862847,-4.184318 4.159918,-4.184318 H 53.914941 58.07486 V 17.205941 H 39.739069 c -2.297071,0 -4.159918,1.872693 -4.159918,4.181906 z"
     id="path4959"
     inkscape:connector-curvature="0"
     style="fill:#c1bf79;stroke:#1c4b61;stroke-width:3.50858164;stroke-linecap:round;stroke-linejoin:round" /><path
     d="m 31.420431,47.053274 c 2.295872,0 4.159919,1.873899 4.159919,4.184318 V 21.387847 c 0,-2.309213 -1.864047,-4.181906 -4.159919,-4.181906 h -18.33579 v 29.847333 h 4.159919 14.175871 z"
     id="path4961"
     inkscape:connector-curvature="0"
     style="fill:#c1bf79;stroke:#1c4b61;stroke-width:3.50858164;stroke-linecap:round;stroke-linejoin:round" /><path
     d="m 15.668,30.706 c 0,0.534 0.216,1.015 0.566,1.368 l 2.775,2.774 H 7.968 c -0.491,0.003 -0.989,0.19 -1.366,0.567 -0.755,0.756 -0.754,1.98 0,2.731 0.377,0.38 0.87,0.566 1.365,0.569 L 19.01,38.714 16.234,41.49 c -0.351,0.351 -0.566,0.831 -0.567,1.365 0,1.069 0.866,1.93 1.934,1.931 0.533,0.003 1.018,-0.217 1.364,-0.563 l 5.512,-5.509 0,0 0,0 1.933,-1.935 -7.442,-7.441 c -0.349,-0.35 -0.832,-0.564 -1.367,-0.566 -1.07,0.001 -1.933,0.869 -1.933,1.934 z"
     id="path4963"
     inkscape:connector-curvature="0"
     style="fill:#1c4b61" /></svg>