<?xml version="1.0" encoding="utf-8"?>
<!-- Generator: Adobe Illustrator 15.1.0, SVG Export Plug-In . SVG Version: 6.00 Build 0)  -->
<!DOCTYPE svg PUBLIC "-//W3C//DTD SVG 1.1//EN" "http://www.w3.org/Graphics/SVG/1.1/DTD/svg11.dtd">
<svg version="1.1" id="Layer_2" xmlns="http://www.w3.org/2000/svg" xmlns:xlink="http://www.w3.org/1999/xlink" x="0px" y="0px"
	 width="100px" height="100px" viewBox="0 0 100 100" enable-background="new 0 0 100 100" xml:space="preserve">
<g>
	<path fill="#C1BF79" d="M50,0.405c-27.397,0-49.596,22.208-49.596,49.587c0,27.404,22.198,49.604,49.596,49.604
		c27.403,0,49.596-22.199,49.596-49.604C99.596,22.613,77.398,0.405,50,0.405z"/>
	<g id="go-down_29_">
		<g>
			<path fill="#EAECD2" d="M60.275,22.229c-0.627,0.623-1.447,0.938-2.273,0.938c-0.82,0-1.643-0.315-2.268-0.938l-5.842-5.832
				l-5.655,5.801c-0.63,0.645-1.464,0.966-2.299,0.966c-0.809,0.001-1.62-0.304-2.247-0.913c-1.266-1.238-1.295-3.271-0.057-4.546
				l7.93-8.124c0.003,0,0.003,0,0.003,0c0.009-0.012,0.016-0.021,0.024-0.027c0.113-0.115,0.243-0.209,0.368-0.303
				c0.038-0.027,0.071-0.064,0.11-0.094c0.116-0.074,0.241-0.133,0.361-0.193c0.067-0.035,0.131-0.078,0.2-0.107
				c0.099-0.039,0.203-0.063,0.307-0.092c0.097-0.033,0.188-0.068,0.29-0.09c0.082-0.018,0.168-0.018,0.251-0.029
				c0.122-0.014,0.243-0.033,0.366-0.035c0.071,0,0.146,0.014,0.22,0.02c0.132,0.008,0.265,0.012,0.394,0.037
				c0.077,0.014,0.147,0.043,0.223,0.064c0.125,0.035,0.252,0.061,0.373,0.111c0.084,0.031,0.162,0.082,0.244,0.119
				c0.107,0.057,0.215,0.105,0.316,0.166c0.084,0.059,0.16,0.131,0.236,0.195c0.088,0.063,0.18,0.121,0.258,0.199
				c0.004,0.004,0.008,0.012,0.012,0.016c0.006,0.004,0.012,0.008,0.014,0.01l8.143,8.13C61.529,18.935,61.535,20.966,60.275,22.229
				z"/>
		</g>
	</g>
	<g id="go-down_27_">
		<g>
			<path fill="#1C4A61" d="M39.698,77.764c0.624-0.623,1.447-0.939,2.271-0.939c0.822,0,1.645,0.316,2.271,0.939l5.841,5.834
				l5.657-5.803c0.627-0.646,1.463-0.967,2.299-0.969c0.809,0.002,1.621,0.307,2.244,0.914c1.266,1.24,1.297,3.273,0.059,4.547
				l-7.93,8.125c-0.002,0.002-0.002,0.002-0.002,0.002c-0.01,0.01-0.016,0.021-0.023,0.027c-0.115,0.115-0.244,0.209-0.371,0.301
				c-0.037,0.029-0.07,0.066-0.109,0.094c-0.115,0.076-0.24,0.135-0.361,0.195c-0.068,0.033-0.131,0.078-0.199,0.107
				c-0.1,0.039-0.203,0.063-0.307,0.092c-0.098,0.033-0.189,0.066-0.291,0.09c-0.082,0.018-0.168,0.018-0.25,0.029
				c-0.123,0.014-0.245,0.033-0.368,0.035c-0.07,0-0.146-0.016-0.219-0.021c-0.132-0.006-0.265-0.01-0.395-0.035
				c-0.075-0.016-0.146-0.043-0.223-0.064c-0.125-0.037-0.251-0.061-0.373-0.113c-0.083-0.029-0.161-0.08-0.244-0.119
				c-0.106-0.055-0.214-0.104-0.316-0.164c-0.083-0.059-0.16-0.133-0.237-0.195c-0.086-0.063-0.178-0.121-0.256-0.199
				c-0.005-0.004-0.008-0.012-0.012-0.016c-0.008-0.004-0.013-0.008-0.014-0.01l-8.143-8.131
				C38.442,81.059,38.437,79.025,39.698,77.764z"/>
		</g>
	</g>
	<line fill="none" stroke="#EAECD2" stroke-width="2" stroke-miterlimit="10" x1="28.581" y1="28.571" x2="71.422" y2="71.414"/>
	<line fill="none" stroke="#EAECD2" stroke-width="2" stroke-miterlimit="10" x1="28.582" y1="71.414" x2="71.424" y2="28.57"/>
</g>
</svg>
