<?xml version="1.0" encoding="utf-8"?>
<!-- Generator: Adobe Illustrator 15.1.0, SVG Export Plug-In . SVG Version: 6.00 Build 0)  -->
<!DOCTYPE svg PUBLIC "-//W3C//DTD SVG 1.1//EN" "http://www.w3.org/Graphics/SVG/1.1/DTD/svg11.dtd">
<svg version="1.1" id="Layer_2" xmlns="http://www.w3.org/2000/svg" xmlns:xlink="http://www.w3.org/1999/xlink" x="0px" y="0px"
	 width="75px" height="37.5px" viewBox="0 0 75 37.5" enable-background="new 0 0 75 37.5" xml:space="preserve">
<rect fill="#303030" width="75" height="37.5"/>
<g>
	<g id="go-right_3_">
		<g>
			<path fill="#C1BF79" d="M47.807,12.469L39.665,20.6c-0.004,0.003-0.008,0.007-0.016,0.011c-0.003,0.003-0.007,0.011-0.014,0.015
				c-0.077,0.078-0.168,0.137-0.254,0.2c-0.08,0.064-0.153,0.136-0.238,0.194c-0.1,0.061-0.21,0.109-0.314,0.165
				c-0.084,0.039-0.162,0.089-0.244,0.12c-0.123,0.051-0.25,0.076-0.373,0.111c-0.078,0.021-0.148,0.051-0.223,0.064
				c-0.129,0.025-0.262,0.029-0.395,0.036c-0.072,0.007-0.148,0.021-0.219,0.021c-0.123-0.003-0.244-0.021-0.367-0.035
				c-0.082-0.011-0.168-0.011-0.25-0.028c-0.102-0.022-0.193-0.058-0.293-0.091c-0.103-0.028-0.205-0.053-0.305-0.092
				c-0.07-0.029-0.133-0.072-0.201-0.107c-0.119-0.061-0.246-0.119-0.359-0.194c-0.04-0.028-0.072-0.065-0.111-0.093
				c-0.126-0.094-0.255-0.188-0.371-0.303c-0.007-0.006-0.012-0.016-0.021-0.027c-0.002,0-0.004,0-0.004,0l-7.928-8.126
				c-1.24-1.274-1.211-3.308,0.055-4.546c0.627-0.609,1.439-0.914,2.246-0.914c0.836,0,1.67,0.322,2.301,0.967l5.656,5.803
				l5.84-5.834c0.625-0.623,1.449-0.938,2.271-0.938c0.823,0,1.645,0.315,2.27,0.938C49.063,9.178,49.061,11.211,47.807,12.469z"/>
		</g>
	</g>
</g>
</svg>
