<?xml version="1.0" encoding="utf-8"?>
<!-- Generator: Adobe Illustrator 15.1.0, SVG Export Plug-In . SVG Version: 6.00 Build 0)  -->
<!DOCTYPE svg PUBLIC "-//W3C//DTD SVG 1.1//EN" "http://www.w3.org/Graphics/SVG/1.1/DTD/svg11.dtd">
<svg version="1.1" id="Layer_2" xmlns="http://www.w3.org/2000/svg" xmlns:xlink="http://www.w3.org/1999/xlink" x="0px" y="0px"
	 width="75px" height="75px" viewBox="0 0 75 75" enable-background="new 0 0 75 75" xml:space="preserve">
<rect fill="#303030" width="75" height="75"/>
<path fill="#B3B3B3" d="M72.5,70c0,1.381-1.12,2.5-2.5,2.5H5c-1.381,0-2.5-1.119-2.5-2.5V5c0-1.381,1.119-2.5,2.5-2.5h65
	c1.38,0,2.5,1.119,2.5,2.5V70z"/>
<g id="zoom-in_1_">
	<g>
		<path fill="none" stroke="#1C4B61" stroke-width="3.5" stroke-linecap="round" stroke-linejoin="round" d="M19.914,33.612
			c0,7.568,6.131,13.705,13.702,13.705c7.562,0,13.694-6.137,13.694-13.705c0-7.564-6.134-13.697-13.694-13.697
			C26.045,19.915,19.914,26.048,19.914,33.612z"/>
		
			<line fill="none" stroke="#1C4B61" stroke-width="3.5" stroke-linecap="round" stroke-linejoin="round" x1="43.305" y1="43.302" x2="55.086" y2="55.085"/>
	</g>
</g>
</svg>
