<?xml version="1.0" encoding="utf-8"?>
<!-- Generator: Adobe Illustrator 15.1.0, SVG Export Plug-In . SVG Version: 6.00 Build 0)  -->
<!DOCTYPE svg PUBLIC "-//W3C//DTD SVG 1.1//EN" "http://www.w3.org/Graphics/SVG/1.1/DTD/svg11.dtd">
<svg version="1.1" id="Layer_2" xmlns="http://www.w3.org/2000/svg" xmlns:xlink="http://www.w3.org/1999/xlink" x="0px" y="0px"
	 width="75px" height="75px" viewBox="0 0 75 75" enable-background="new 0 0 75 75" xml:space="preserve">
<path fill="#1C4A61" d="M37.5,15C25.07,15,15,25.076,15,37.496C15,49.93,25.07,60,37.5,60C49.932,60,60,49.93,60,37.496
	C60,25.076,49.93,15,37.5,15z"/>
<path fill="#C2C079" d="M47.804,43.258c1.254,1.256,1.258,3.291,0,4.545c-0.627,0.629-1.451,0.943-2.273,0.943
	s-1.645-0.314-2.27-0.939l-5.76-5.762l-5.762,5.762c-0.627,0.625-1.447,0.939-2.27,0.939c-0.824,0-1.648-0.314-2.275-0.943
	c-1.254-1.254-1.254-3.289,0.004-4.545l5.758-5.758l-5.758-5.758c-1.258-1.254-1.258-3.291-0.004-4.545s3.291-1.26,4.545,0
	l5.762,5.758l5.76-5.758c1.252-1.26,3.287-1.254,4.543,0c1.258,1.254,1.254,3.291,0,4.545L42.046,37.5L47.804,43.258z"/>
</svg>
