<?xml version="1.0" encoding="utf-8"?>
<!-- Generator: Adobe Illustrator 15.1.0, SVG Export Plug-In . SVG Version: 6.00 Build 0)  -->
<!DOCTYPE svg PUBLIC "-//W3C//DTD SVG 1.1//EN" "http://www.w3.org/Graphics/SVG/1.1/DTD/svg11.dtd">
<svg version="1.1" id="Layer_2" xmlns="http://www.w3.org/2000/svg" xmlns:xlink="http://www.w3.org/1999/xlink" x="0px" y="0px"
	 width="75px" height="75px" viewBox="0 0 75 75" enable-background="new 0 0 75 75" xml:space="preserve">
<rect width="75" height="75"/>
<g>
	<path fill="#C1BF79" stroke="#1C4B61" stroke-width="3.5" stroke-linecap="round" stroke-linejoin="round" d="M41.66,47.054
		c-2.297,0-4.16,1.863-4.16,4.162c0-2.299-1.863-4.162-4.16-4.162H19.161H15v6.428h4.161H33.34c0,2.299,1.862,4.16,4.16,4.162h0.001
		c2.297,0,4.161-1.863,4.161-4.162h14.177H60v-6.428h-4.161H41.66z"/>
	<path fill="#C1BF79" stroke="#1C4B61" stroke-width="3.5" stroke-linecap="round" stroke-linejoin="round" d="M37.5,21.518v29.698
		c0-2.299,1.863-4.162,4.16-4.162h14.179H60V17.356H41.66C39.363,17.356,37.5,19.22,37.5,21.518z"/>
	<path fill="#C1BF79" stroke="#1C4B61" stroke-width="3.5" stroke-linecap="round" stroke-linejoin="round" d="M33.34,47.054
		c2.297,0,4.16,1.863,4.16,4.162V21.518c0-2.298-1.863-4.161-4.16-4.161H15v29.697h4.161H33.34z"/>
</g>
</svg>
