<?xml version="1.0" encoding="UTF-8" standalone="no"?>
<!-- Generator: Adobe Illustrator 15.1.0, SVG Export Plug-In . SVG Version: 6.00 Build 0)  -->

<svg
   xmlns:dc="http://purl.org/dc/elements/1.1/"
   xmlns:cc="http://creativecommons.org/ns#"
   xmlns:rdf="http://www.w3.org/1999/02/22-rdf-syntax-ns#"
   xmlns:svg="http://www.w3.org/2000/svg"
   xmlns="http://www.w3.org/2000/svg"
   xmlns:sodipodi="http://sodipodi.sourceforge.net/DTD/sodipodi-0.dtd"
   xmlns:inkscape="http://www.inkscape.org/namespaces/inkscape"
   version="1.1"
   id="Layer_2"
   x="0px"
   y="0px"
   width="90"
   height="112.5"
   viewBox="0 0 90 112.5"
   enable-background="new 0 0 225 112.5"
   xml:space="preserve"
   inkscape:version="0.48.4 r9939"
   sodipodi:docname="bookreader-download-over.svg"><metadata
     id="metadata76"><rdf:RDF><cc:Work
         rdf:about=""><dc:format>image/svg+xml</dc:format><dc:type
           rdf:resource="http://purl.org/dc/dcmitype/StillImage" /></cc:Work></rdf:RDF></metadata><defs
     id="defs74" /><sodipodi:namedview
     pagecolor="#ffffff"
     bordercolor="#666666"
     borderopacity="1"
     objecttolerance="10"
     gridtolerance="10"
     guidetolerance="10"
     inkscape:pageopacity="0"
     inkscape:pageshadow="2"
     inkscape:window-width="1366"
     inkscape:window-height="713"
     id="namedview72"
     showgrid="false"
     inkscape:zoom="2.0616091"
     inkscape:cx="-168.76201"
     inkscape:cy="98.079529"
     inkscape:window-x="-4"
     inkscape:window-y="-3"
     inkscape:window-maximized="1"
     inkscape:current-layer="Layer_2" /><path
     d="M 86.432926,92.789084 C 86.365493,105.80816 71.113625,112.59528 66.340624,112.58575 l -42.966607,-0.0858 C 18.823326,112.49095 4.4692177,102.8608 4.4159698,90.385811 L 4.1158555,20.07466 C 4.0687335,9.0348507 12.216444,0.7974723 22.448035,0.77167256 L 67.868852,0.65714047 C 75.153556,0.63877153 86.872459,7.930199 86.800797,21.765631 z"
     id="path3"
     inkscape:connector-curvature="0"
     style="fill:#c1bf79"
     sodipodi:nodetypes="sssssssss" /><path
     d="M 22.215231,110.63495 C 20.299326,110.64762 5.864591,101.91236 5.9677472,91.718034 6.1460859,74.093871 5.3043745,38.498159 5.6523248,19.261376 5.8417786,8.7872289 14.635305,2.7788474 23.988954,2.772413 L 66.766832,2.742986 c 10.148723,-0.00698 17.651924,9.033028 17.651924,17.816778 l 0,71.622994 c 0,11.299862 -13.857073,18.132502 -17.843774,18.158862 z"
     id="path5"
     inkscape:connector-curvature="0"
     style="fill:#eaecd2"
     sodipodi:nodetypes="sssssssss" /><g
     id="g7" /><g
     id="emblem-download_1_"
     transform="translate(-139.93902,0.68597561)"><g
       id="Cursor_1_"><g
         id="g49"><path
           d="m 198.043,26.168 c -1.068,0 -2.026,0.432 -2.73,1.13 l -5.539,5.54 V 16.46 c -0.002,-0.981 -0.377,-1.974 -1.13,-2.726 -1.508,-1.505 -3.95,-1.505 -5.453,0 -0.758,0.752 -1.128,1.738 -1.133,2.726 v 16.375 l -5.54,-5.537 c -0.698,-0.701 -1.661,-1.13 -2.728,-1.13 -2.129,0 -3.85,1.727 -3.853,3.857 -0.003,1.063 0.435,2.032 1.126,2.726 l 10.994,10.997 0,0 0,0 3.86,3.857 14.85,-14.854 c 0.696,-0.693 1.126,-1.659 1.131,-2.726 0,-2.133 -1.729,-3.857 -3.855,-3.857 z"
           id="path51"
           inkscape:connector-curvature="0"
           style="fill:#eaecd2;stroke:#1c4b61;stroke-width:3.5;stroke-linecap:round;stroke-linejoin:round" /></g><g
         id="g53"><path
           d="m 198.043,26.168 c -1.068,0 -2.026,0.432 -2.73,1.13 l -5.539,5.54 V 16.46 c -0.002,-0.981 -0.377,-1.974 -1.13,-2.726 -1.508,-1.505 -3.95,-1.505 -5.453,0 -0.758,0.752 -1.128,1.738 -1.133,2.726 v 16.375 l -5.54,-5.537 c -0.698,-0.701 -1.661,-1.13 -2.728,-1.13 -2.129,0 -3.85,1.727 -3.853,3.857 -0.003,1.063 0.435,2.032 1.126,2.726 l 10.994,10.997 0,0 0,0 3.86,3.857 14.85,-14.854 c 0.696,-0.693 1.126,-1.659 1.131,-2.726 0,-2.133 -1.729,-3.857 -3.855,-3.857 z"
           id="path55"
           inkscape:connector-curvature="0"
           style="fill:#eaecd2;stroke:#1c4b61;stroke-width:3.5;stroke-linecap:round;stroke-linejoin:round" /></g></g></g><g
     id="g57"
     transform="translate(-139.93902,0.68597561)"><g
       id="libro_2_"><path
         d="m 173.323,58.294 c -1.698,0 -3.074,1.377 -3.074,3.074 v 35.769 c 0,-1.697 1.376,-3.073 3.074,-3.073 h 25.189 3.074 v -35.77 h -28.263 z"
         id="path60"
         inkscape:connector-curvature="0"
         style="fill:#4badde;stroke:#1c4b61;stroke-width:3.5;stroke-linecap:round;stroke-linejoin:round" /><path
         d="m 198.513,97.137 c 0,-1.697 1.377,-3.073 3.074,-3.073 h -3.074 -25.189 c -1.698,0 -3.074,1.376 -3.074,3.073 0,1.698 1.376,3.074 3.074,3.074 h 28.264 c -1.698,0 -3.075,-1.376 -3.075,-3.074 z"
         id="path62"
         inkscape:connector-curvature="0"
         style="fill:#c1bf79;stroke:#1c4b61;stroke-width:3.5;stroke-linecap:round;stroke-linejoin:round" /><line
         x1="175.39"
         y1="58.293999"
         x2="175.39"
         y2="94.063004"
         id="line64"
         style="fill:#ffffff;stroke:#1c4b61;stroke-width:3.5;stroke-linecap:round;stroke-linejoin:round" /></g><circle
       cx="185.005"
       cy="70.103996"
       r="1.75"
       id="circle66"
       sodipodi:cx="185.005"
       sodipodi:cy="70.103996"
       sodipodi:rx="1.75"
       sodipodi:ry="1.75"
       style="fill:#1c4b61"
       d="m 186.755,70.103996 c 0,0.966499 -0.7835,1.75 -1.75,1.75 -0.96649,0 -1.75,-0.783501 -1.75,-1.75 0,-0.966498 0.78351,-1.75 1.75,-1.75 0.9665,0 1.75,0.783502 1.75,1.75 z" /><circle
       cx="192.33299"
       cy="70.103996"
       r="1.717"
       id="circle68"
       sodipodi:cx="192.33299"
       sodipodi:cy="70.103996"
       sodipodi:rx="1.717"
       sodipodi:ry="1.717"
       style="fill:#1c4b61"
       d="m 194.04999,70.103996 c 0,0.948273 -0.76872,1.717 -1.717,1.717 -0.94827,0 -1.717,-0.768727 -1.717,-1.717 0,-0.948273 0.76873,-1.717 1.717,-1.717 0.94828,0 1.717,0.768727 1.717,1.717 z" /><path
       d="m 181.521,77.235 c 1.15,2.818 3.915,4.807 7.147,4.807 3.233,0 5.998,-1.988 7.148,-4.807"
       id="path70"
       inkscape:connector-curvature="0"
       style="fill:none;stroke:#1c4b61;stroke-width:3.5;stroke-linecap:round;stroke-linejoin:round" /></g></svg>