<?xml version="1.0" encoding="utf-8"?>
<!-- Generator: Adobe Illustrator 15.1.0, SVG Export Plug-In . SVG Version: 6.00 Build 0)  -->
<!DOCTYPE svg PUBLIC "-//W3C//DTD SVG 1.1//EN" "http://www.w3.org/Graphics/SVG/1.1/DTD/svg11.dtd">
<svg version="1.1" id="Layer_1" xmlns="http://www.w3.org/2000/svg" xmlns:xlink="http://www.w3.org/1999/xlink" x="0px" y="0px"
	 width="75px" height="75px" viewBox="0 0 75 75" enable-background="new 0 0 75 75" xml:space="preserve">
<rect fill="#303030" width="75" height="75"/>
<path d="M72.5,70c0,1.381-1.12,2.5-2.5,2.5H5c-1.381,0-2.5-1.119-2.5-2.5V5c0-1.381,1.119-2.5,2.5-2.5h65c1.38,0,2.5,1.119,2.5,2.5
	V70z"/>
<path fill="#943A42" d="M37.5,70.751l-5-5h10L37.5,70.751z"/>
<g>
	<path fill="#C1BF79" stroke="#1C4B61" stroke-width="3.5" stroke-linecap="round" stroke-linejoin="round" d="M41.66,44.697
		c-2.297,0-4.16,1.863-4.16,4.162c0-2.299-1.863-4.162-4.16-4.162H19.161H15v6.428h4.161H33.34c0,2.299,1.862,4.16,4.16,4.162h0.001
		c2.297,0,4.161-1.863,4.161-4.162H55.84H60v-6.428h-4.16H41.66z"/>
	<path fill="#C1BF79" stroke="#1C4B61" stroke-width="3.5" stroke-linecap="round" stroke-linejoin="round" d="M37.5,19.161v29.698
		c0-2.299,1.863-4.162,4.16-4.162h14.18H60V15H41.66C39.363,15,37.5,16.863,37.5,19.161z"/>
	<path fill="#C1BF79" stroke="#1C4B61" stroke-width="3.5" stroke-linecap="round" stroke-linejoin="round" d="M33.34,44.697
		c2.297,0,4.16,1.863,4.16,4.162V19.161c0-2.298-1.863-4.161-4.16-4.161H15v29.697h4.161H33.34z"/>
</g>
</svg>
