<?xml version="1.0" encoding="utf-8"?>
<!-- Generator: Adobe Illustrator 15.1.0, SVG Export Plug-In . SVG Version: 6.00 Build 0)  -->
<!DOCTYPE svg PUBLIC "-//W3C//DTD SVG 1.1//EN" "http://www.w3.org/Graphics/SVG/1.1/DTD/svg11.dtd">
<svg version="1.1" id="Layer_2" xmlns="http://www.w3.org/2000/svg" xmlns:xlink="http://www.w3.org/1999/xlink" x="0px" y="0px"
	 width="75px" height="75px" viewBox="0 0 75 75" enable-background="new 0 0 75 75" xml:space="preserve">
<rect fill="#303030" width="75" height="75"/>
<path d="M72.5,70c0,1.381-1.12,2.5-2.5,2.5H5c-1.381,0-2.5-1.119-2.5-2.5V5c0-1.381,1.119-2.5,2.5-2.5h65c1.38,0,2.5,1.119,2.5,2.5
	V70z"/>
<path fill="#943A42" d="M37.5,70.751l-5-5h10L37.5,70.751z"/>
<g id="activity-journal_1_">
	<path fill="#C1BF79" stroke="#1C4B61" stroke-width="3.5" stroke-linecap="round" stroke-linejoin="round" d="M56.74,54.669
		c0,2.511-1.527,4.331-4.332,4.331H22.952V16H52.41c2.15,0,4.332,2.154,4.332,4.33L56.74,54.669L56.74,54.669z"/>
	
		<line fill="#C1BF79" stroke="#1C4B61" stroke-width="3.5" stroke-linecap="round" stroke-linejoin="round" x1="32.215" y1="16.121" x2="32.215" y2="58.881"/>
	<path fill="#C1BF79" stroke="#1C4B61" stroke-width="3.5" stroke-linecap="round" stroke-linejoin="round" d="M18.258,24.464
		c0,0,2.084,0.695,4.171,0.695c2.086,0,4.172-0.695,4.172-0.695"/>
	<path fill="#C1BF79" stroke="#1C4B61" stroke-width="3.5" stroke-linecap="round" stroke-linejoin="round" d="M18.258,38.021
		c0,0,1.912,0.694,4.345,0.694c2.434,0,4-0.694,4-0.694"/>
	<path fill="#C1BF79" stroke="#1C4B61" stroke-width="3.5" stroke-linecap="round" stroke-linejoin="round" d="M18.258,51.232
		c0,0,1.736,0.695,4.519,0.695c2.781,0,3.824-0.695,3.824-0.695"/>
</g>
</svg>
