<?xml version="1.0" encoding="utf-8"?>
<!-- Generator: Adobe Illustrator 15.1.0, SVG Export Plug-In . SVG Version: 6.00 Build 0)  -->
<!DOCTYPE svg PUBLIC "-//W3C//DTD SVG 1.1//EN" "http://www.w3.org/Graphics/SVG/1.1/DTD/svg11.dtd">
<svg version="1.1" id="Layer_2" xmlns="http://www.w3.org/2000/svg" xmlns:xlink="http://www.w3.org/1999/xlink" x="0px" y="0px"
	 width="75px" height="75px" viewBox="0 0 75 75" enable-background="new 0 0 75 75" xml:space="preserve">
<rect width="75" height="75"/>
<g>
	<g id="emblem-download_5_">
		<g id="Cursor_6_">
			<g>
				<path fill="#4BADDE" d="M35.644,32.323c0.204,0.203,0.471,0.304,0.737,0.305h2.115l-4.08,4.08
					c-0.188,0.188-0.305,0.448-0.305,0.736c0.001,0.576,0.467,1.041,1.041,1.041c0.289,0,0.548-0.116,0.736-0.305l4.08-4.08v2.115
					c0,0.267,0.103,0.533,0.306,0.736c0.406,0.407,1.064,0.406,1.473,0c0.203-0.203,0.305-0.471,0.307-0.735v-4.199l0,0l0,0v-1.473
					H36.38c-0.266,0.001-0.532,0.102-0.735,0.305C35.237,31.256,35.237,31.916,35.644,32.323z"/>
			</g>
			<g>
				<path fill="#4BADDE" d="M35.644,32.323c0.204,0.203,0.471,0.304,0.737,0.305h2.115l-4.08,4.08
					c-0.188,0.188-0.305,0.448-0.305,0.736c0.001,0.576,0.467,1.041,1.041,1.041c0.289,0,0.548-0.116,0.736-0.305l4.08-4.08v2.115
					c0,0.267,0.103,0.533,0.306,0.736c0.406,0.407,1.064,0.406,1.473,0c0.203-0.203,0.305-0.471,0.307-0.735v-4.199l0,0l0,0v-1.473
					H36.38c-0.266,0.001-0.532,0.102-0.735,0.305C35.237,31.256,35.237,31.916,35.644,32.323z"/>
			</g>
		</g>
	</g>
	<g>
		<g>
			<path fill="#4BADDE" d="M35.345,22.922H60v3.563H49.656v25.593h-3.971V26.484h-10.34V22.922z"/>
		</g>
	</g>
	<g>
		<g>
			<path fill="#4BADDE" d="M15.001,34.922h16.656v3.563h-6.344v13.594h-3.97V38.484H15L15.001,34.922L15.001,34.922z"/>
		</g>
	</g>
</g>
</svg>
