<?xml version="1.0" encoding="utf-8"?>
<!-- Generator: Adobe Illustrator 15.1.0, SVG Export Plug-In . SVG Version: 6.00 Build 0)  -->
<!DOCTYPE svg PUBLIC "-//W3C//DTD SVG 1.1//EN" "http://www.w3.org/Graphics/SVG/1.1/DTD/svg11.dtd">
<svg version="1.1" id="Layer_2" xmlns="http://www.w3.org/2000/svg" xmlns:xlink="http://www.w3.org/1999/xlink" x="0px" y="0px"
	 width="75px" height="75px" viewBox="0 0 75 75" enable-background="new 0 0 75 75" xml:space="preserve">
<rect fill="#303030" width="75" height="75"/>
<path fill="#B3B3B3" d="M72.5,70c0,1.381-1.12,2.5-2.5,2.5H5c-1.381,0-2.5-1.119-2.5-2.5V5c0-1.381,1.119-2.5,2.5-2.5h65
	c1.38,0,2.5,1.119,2.5,2.5V70z"/>
<g>
	<g>
		<path fill="#C1BF79" stroke="#1C4B61" stroke-width="3.5" stroke-linecap="round" stroke-linejoin="round" d="M41.66,49.055
			c-2.297,0-4.16,1.863-4.16,4.16c0-2.297-1.863-4.16-4.16-4.16H19.161H15v6.428h4.161H33.34c0,2.297,1.862,4.158,4.16,4.16h0.001
			c2.297,0,4.161-1.863,4.161-4.16h14.177H60v-6.428h-4.161H41.66z"/>
		<path fill="#C1BF79" stroke="#1C4B61" stroke-width="3.5" stroke-linecap="round" stroke-linejoin="round" d="M37.5,23.518v29.697
			c0-2.297,1.863-4.16,4.16-4.16h14.179H60V19.356H41.66C39.363,19.356,37.5,21.22,37.5,23.518z"/>
		<path fill="#C1BF79" stroke="#1C4B61" stroke-width="3.5" stroke-linecap="round" stroke-linejoin="round" d="M33.34,49.055
			c2.297,0,4.16,1.863,4.16,4.16V23.518c0-2.298-1.863-4.161-4.16-4.161H15v29.698h4.161H33.34z"/>
	</g>
	<g id="marca_1_">
		<polygon fill="#943A43" stroke="#1C4B61" stroke-width="3.5" stroke-linecap="round" stroke-linejoin="round" points="
			54.811,15.357 42.691,15.357 42.691,40.072 48.752,34.01 48.752,34.01 54.811,40.072 		"/>
	</g>
</g>
<g>
	<circle fill="#943A43" cx="52.5" cy="52.143" r="7.5"/>
	<path fill="#EAECD2" d="M55.899,54.029c0.419,0.42,0.419,1.098,0,1.516c-0.208,0.209-0.483,0.314-0.757,0.314
		c-0.274,0-0.549-0.105-0.758-0.314l-1.919-1.92l-1.921,1.92c-0.209,0.209-0.482,0.314-0.757,0.314s-0.55-0.105-0.759-0.314
		c-0.418-0.418-0.418-1.096,0.002-1.516l1.92-1.918l-1.92-1.92c-0.42-0.418-0.42-1.098-0.002-1.516c0.419-0.418,1.098-0.42,1.516,0
		l1.921,1.92l1.919-1.92c0.418-0.42,1.096-0.418,1.515,0s0.419,1.098,0,1.516l-1.919,1.92L55.899,54.029z"/>
</g>
</svg>
